<svg width="122" height="116" viewBox="0 0 122 116" fill="none" xmlns="http://www.w3.org/2000/svg">
<g clip-path="url(#clip0_118_26)">
<path d="M45.7867 42.0885C48.5964 42.0885 50.8741 39.7905 50.8741 36.9557C50.8741 34.121 48.5964 31.823 45.7867 31.823C42.977 31.823 40.6993 34.121 40.6993 36.9557C40.6993 39.7905 42.977 42.0885 45.7867 42.0885Z" fill="#0BD8C9"/>
<path d="M22.3846 42.0885C25.1943 42.0885 27.472 39.7905 27.472 36.9557C27.472 34.121 25.1943 31.823 22.3846 31.823C19.5749 31.823 17.2972 34.121 17.2972 36.9557C17.2972 39.7905 19.5749 42.0885 22.3846 42.0885Z" fill="#0BD8C9"/>
<path d="M69.1887 42.0885C71.9984 42.0885 74.2761 39.7905 74.2761 36.9557C74.2761 34.121 71.9984 31.823 69.1887 31.823C66.379 31.823 64.1013 34.121 64.1013 36.9557C64.1013 39.7905 66.379 42.0885 69.1887 42.0885Z" fill="#0BD8C9"/>
<path d="M60.7224 86.2301C61.6649 86.2301 62.4937 86.8796 62.7018 87.8072C63.3382 90.6489 64.4427 93.3375 65.9818 95.7985C66.485 96.6029 66.3546 97.6537 65.6877 98.3266L61.603 102.448C61.2052 102.849 61.2052 103.498 61.603 103.9L65.9199 108.255C66.3176 108.656 66.9614 108.656 67.3591 108.255L71.4448 104.134C71.837 103.737 72.3587 103.532 72.8841 103.532C73.2577 103.532 73.6342 103.636 73.9681 103.848C76.4008 105.394 79.0583 106.503 81.8666 107.145C82.7878 107.355 83.4353 108.19 83.4353 109.143V114.973C83.4353 115.54 83.8904 115.999 84.4528 115.999H90.5577C91.1201 115.999 91.5752 115.54 91.5752 114.973V109.143C91.5752 108.192 92.219 107.356 93.1384 107.146C95.955 106.503 98.6199 105.389 101.059 103.836C101.856 103.329 102.898 103.46 103.565 104.133L107.65 108.254C108.047 108.656 108.691 108.656 109.089 108.254L113.406 103.899C113.803 103.498 113.803 102.848 113.406 102.447L109.321 98.3247C108.654 97.6518 108.524 96.601 109.027 95.7966C110.566 93.3357 111.67 90.647 112.307 87.8054C112.515 86.8777 113.344 86.2282 114.286 86.2282H120.065C120.627 86.2282 121.082 85.7691 121.082 85.2017V79.0424C121.082 78.475 120.627 78.0158 120.065 78.0158H114.286C113.344 78.0158 112.515 77.3663 112.307 76.4387C111.67 73.597 110.566 70.9084 109.027 68.4475C108.524 67.643 108.654 66.5922 109.321 65.9193L113.406 61.7982C113.803 61.3969 113.803 60.7474 113.406 60.3461L109.089 55.9908C108.691 55.5895 108.047 55.5895 107.65 55.9908L103.565 60.1119C102.898 60.7847 101.856 60.9163 101.059 60.4086C98.6199 58.8558 95.955 57.7424 93.1384 57.0994C92.219 56.8895 91.5752 56.0533 91.5752 55.1023V49.2725C91.5752 48.7051 91.1201 48.2459 90.5577 48.2459H84.4528C83.8904 48.2459 83.4353 48.7051 83.4353 49.2725V55.1023C83.4353 56.0533 82.7915 56.8895 81.8721 57.0994C79.0555 57.7415 76.3907 58.8558 73.9515 60.4086C73.1541 60.9163 72.1126 60.7847 71.4457 60.1119L67.361 55.9908C66.9632 55.5895 66.3194 55.5895 65.9217 55.9908L61.6048 60.3461C61.2071 60.7474 61.2071 61.3969 61.6048 61.7982L65.6895 65.9203C66.3564 66.5931 66.4869 67.644 65.9837 68.4484C64.4445 70.9093 63.341 73.5979 62.7037 76.4396C62.4956 77.3672 61.6668 78.0168 60.7242 78.0168H54.9459C54.3835 78.0168 53.9284 78.4759 53.9284 79.0433V85.2026C53.9284 85.77 54.3835 86.2291 54.9459 86.2291H60.7242L60.7224 86.2301ZM87.5034 65.6991C96.4794 65.6991 103.783 73.0679 103.783 82.1239C103.783 91.1799 96.4794 98.5487 87.5034 98.5487C78.5274 98.5487 71.2237 91.1799 71.2237 82.1239C71.2237 73.0679 78.5274 65.6991 87.5034 65.6991Z" fill="#0FB9B1"/>
<path d="M87.5034 94.4425C94.2467 94.4425 99.7132 88.9272 99.7132 82.1239C99.7132 75.3205 94.2467 69.8053 87.5034 69.8053C80.7601 69.8053 75.2936 75.3205 75.2936 82.1239C75.2936 88.9272 80.7601 94.4425 87.5034 94.4425Z" fill="#0BD8C9"/>
<path d="M81.3985 0H10.1748C4.56387 0 0 4.60454 0 10.2655V63.646C0 69.307 4.56387 73.9115 10.1748 73.9115H12.2098C12.749 73.9115 13.267 74.128 13.6481 74.5134L31.8398 92.8672C32.2736 93.3049 32.7583 93.1677 32.9488 93.0893C33.1375 93.0109 33.5769 92.7599 33.5769 92.1411V75.9655C33.5769 74.8317 34.488 73.9124 35.6119 73.9124H59.1434C59.7567 71.7473 60.6104 69.6672 61.6927 67.699L58.0048 63.9773C57.2361 63.2018 56.8125 62.1706 56.8125 61.074C56.8125 59.9775 57.2361 58.9463 58.0048 58.1708L63.76 52.3642C65.2973 50.8123 67.9789 50.8123 69.5153 52.3642L73.2041 56.085C75.1549 54.9931 77.2167 54.1318 79.3626 53.513V48.2496C79.3626 45.9856 81.1885 44.1435 83.4325 44.1435H91.5724V10.2655C91.5724 4.60454 87.0095 0 81.3985 0ZM22.3846 46.1947C17.3351 46.1947 13.2273 42.0502 13.2273 36.9557C13.2273 31.8613 17.3351 27.7168 22.3846 27.7168C27.4341 27.7168 31.5419 31.8613 31.5419 36.9557C31.5419 42.0502 27.4341 46.1947 22.3846 46.1947ZM45.7867 46.1947C40.7372 46.1947 36.6293 42.0502 36.6293 36.9557C36.6293 31.8613 40.7372 27.7168 45.7867 27.7168C50.8361 27.7168 54.944 31.8613 54.944 36.9557C54.944 42.0502 50.8361 46.1947 45.7867 46.1947ZM69.1887 46.1947C64.1393 46.1947 60.0314 42.0502 60.0314 36.9557C60.0314 31.8613 64.1393 27.7168 69.1887 27.7168C74.2382 27.7168 78.3461 31.8613 78.3461 36.9557C78.3461 42.0502 74.2382 46.1947 69.1887 46.1947Z" fill="#0FB9B1"/>
</g>
<defs>
<clipPath id="clip0_118_26">
<rect width="121.08" height="116" fill="white"/>
</clipPath>
</defs>
</svg>
