<svg width="125" height="116" viewBox="0 0 125 116" fill="none" xmlns="http://www.w3.org/2000/svg">
<path d="M61.3149 108.532C60.4836 99.2294 50.1652 90.6387 37.819 88.9708L37.3143 88.9023C35.8398 88.7015 34.3151 88.4933 32.8252 88.4652C30.3891 88.4199 28.1876 87.5537 26.2812 85.8908C25.5606 85.2623 24.8473 84.6088 24.1567 83.9771C22.8098 82.7441 21.4168 81.4694 19.9218 80.3302C17.8569 78.7567 15.3899 77.4856 13.0039 76.2562C12.7183 76.1088 12.4331 75.9619 12.1489 75.8145C11.1919 75.3188 9.53742 74.8454 8.75895 74.8454C8.26153 74.8454 7.79371 74.9406 7.32954 75.1361C6.98882 75.2798 6.74876 75.4485 6.63534 75.6245C6.46407 75.8898 6.56929 76.209 6.64445 76.3773C7.60604 78.524 15.189 86.4508 16.1693 87.6127C16.6599 88.1936 19.6567 92.0069 19.6567 92.0069C19.6567 92.0069 15.1421 87.9065 13.638 86.3819C13.1957 85.9339 12.8062 85.5389 12.5124 85.2441C10.6334 83.359 8.75485 81.3905 6.76926 79.2269C5.90424 78.2846 4.80007 76.8738 5.19136 75.5134C5.47286 74.5348 6.44402 73.782 8.27929 73.8332C7.52997 69.0141 6.71688 64.1188 6.06185 60.4311C5.92064 59.6348 5.44143 58.7705 4.811 58.176C4.36733 57.7574 3.51051 57.3057 2.90012 57.3057C2.8163 57.3057 2.74069 57.3148 2.67509 57.332C2.03282 57.5034 1.71168 57.8953 1.60099 58.6421C1.30308 60.6556 1.06667 62.713 0.838002 64.7029C0.633932 66.4792 0.422573 68.3167 0.16794 70.122C-0.396443 74.123 0.459925 77.9 2.78715 81.6694C4.82148 84.9643 6.81026 88.3432 8.73344 91.6105C9.11152 92.2527 9.48914 92.8948 9.86767 93.5364C11.0033 95.4628 12.7584 96.9879 15.2327 98.1987C17.2397 99.1805 19.2426 100.167 21.2455 101.154C25.2504 103.127 29.3915 105.167 33.4952 107.13C37.8978 109.237 39.8975 112.003 39.6087 115.586C39.6032 115.652 39.5982 115.814 39.5946 116H61.5007C61.5003 112.555 61.4898 112.33 61.3185 108.625L61.3144 108.532L61.3149 108.532Z" fill="#0FB9B1"/>
<path d="M124.756 70.122C124.501 68.3162 124.29 66.4792 124.086 64.7029C123.857 62.7135 123.621 60.656 123.322 58.6421C123.212 57.8957 122.89 57.5039 122.248 57.332C122.183 57.3143 122.107 57.3057 122.023 57.3057C121.412 57.3057 120.555 57.7574 120.112 58.176C119.482 58.7705 119.003 59.6348 118.861 60.4311C118.206 64.1188 117.393 69.0141 116.644 73.8332C118.479 73.782 119.45 74.5348 119.732 75.5134C120.123 76.8738 119.019 78.2841 118.154 79.2269C116.168 81.3909 114.29 83.359 112.411 85.2441C112.117 85.5389 111.728 85.9334 111.285 86.3819C109.781 87.9065 105.267 92.0069 105.267 92.0069C105.267 92.0069 108.264 88.194 108.754 87.6127C109.735 86.4508 117.317 78.524 118.279 76.3773C118.354 76.209 118.46 75.8898 118.288 75.6245C118.174 75.4485 117.934 75.2798 117.594 75.1361C117.13 74.9406 116.662 74.8454 116.165 74.8454C115.386 74.8454 113.732 75.3188 112.775 75.8145C112.491 75.9619 112.205 76.1088 111.92 76.2562C109.534 77.4856 107.067 78.7571 105.002 80.3302C103.507 81.4694 102.114 82.7441 100.767 83.9771C100.077 84.6088 99.3631 85.2623 98.6425 85.8908C96.7361 87.5537 94.5346 88.4199 92.0985 88.4652C90.6081 88.4933 89.0839 88.701 87.6094 88.9023L87.1047 88.9708C74.7585 90.6383 64.4401 99.2294 63.6088 108.532L63.6047 108.625C63.4339 112.33 63.4234 112.555 63.4225 116H85.3287C85.325 115.813 85.3196 115.652 85.3146 115.585C85.0258 112.002 87.0255 109.236 91.428 107.13C95.5317 105.166 99.6728 103.126 103.678 101.154C105.681 100.167 107.684 99.18 109.691 98.1982C112.165 96.987 113.92 95.4619 115.056 93.536C115.434 92.8943 115.812 92.2522 116.19 91.6101C118.113 88.3428 120.102 84.9643 122.136 81.6689C124.463 77.9 125.32 74.1226 124.755 70.1215H124.756V70.122Z" fill="#0FB9B1"/>
<path d="M69.6362 94.2189C72.5351 91.8055 75.9656 89.8805 79.6644 88.5577C78.7064 87.0639 76.9099 86.0577 74.8505 86.0577H65.1057V74.4989C65.1057 73.2569 64.4739 72.1617 63.5127 71.5146V22.5302C63.5127 19.6334 65.3626 17.03 68.1321 16.142C68.1831 16.1257 68.2346 16.1099 68.2861 16.0944C75.583 13.93 86.3026 21.606 86.4456 21.7103V21.7112L91.1962 21.7076V25.7422H93.5771L80.0201 62.6291C80.0133 62.6278 80.0069 62.6264 80.0001 62.625C78.2728 62.2822 76.6029 61.8768 74.9908 61.4197C75.961 63.269 77.1718 64.9677 78.5862 66.4846C78.6955 66.6093 78.8103 66.729 78.9305 66.8483C83.2247 71.2951 89.257 74.0586 95.9308 74.0586C102.605 74.0586 108.073 71.5445 112.327 67.451C113.01 66.7966 113.657 66.1005 114.257 65.3627C115.53 63.8041 116.611 62.0795 117.461 60.2248C115.932 60.7757 114.33 61.2741 112.671 61.7158C112.6 61.7349 112.528 61.7525 112.457 61.7711L96.7835 25.7422H99.287V21.7017L103.163 21.699V18.9341H87.6336C85.1561 17.2522 75.1898 10.9792 67.4461 13.2634C65.9584 13.7032 64.6451 14.4234 63.5127 15.4174V12.5065C65.0852 11.775 66.1752 10.1874 66.1752 8.34493C66.1752 5.80998 61.564 0 61.564 0C61.564 0 56.9524 5.80998 56.9524 8.34493C56.9524 10.1874 58.0429 11.775 59.6158 12.5065V15.7453C58.4069 14.5848 56.9779 13.7572 55.3349 13.272C47.592 10.9833 37.6249 17.2599 35.1474 18.9427H19.618V21.7076L23.4939 21.7103V25.7422H26.0489L12.4923 62.6291C12.4855 62.6278 12.4787 62.6264 12.4718 62.625C10.745 62.2822 9.07508 61.8768 7.46255 61.4197C8.43326 63.269 9.64401 64.9677 11.0579 66.4846C11.1677 66.6093 11.2825 66.729 11.4023 66.8483C15.6969 71.2951 21.7293 74.0586 28.403 74.0586C35.0768 74.0586 40.5457 71.5445 44.7984 67.451C45.4821 66.7966 46.1289 66.1005 46.7293 65.3627C48.0024 63.8041 49.0825 62.0795 49.9329 60.2248C48.4042 60.7757 46.8022 61.2741 45.1427 61.7158C45.0721 61.7349 45.0006 61.7525 44.9296 61.7711L29.2557 25.7422H31.5848V21.7153L36.3349 21.7189C36.4419 21.6405 47.1593 13.9363 54.4913 16.1017C54.7769 16.1865 55.0652 16.2835 55.3517 16.3946C57.9345 17.3937 59.6158 19.8946 59.6158 22.6531V71.4185C58.5708 72.0497 57.8725 73.1929 57.8725 74.4985V86.0572H50.0732C48.0143 86.0572 46.2173 87.0635 45.2589 88.5568C48.9577 89.88 52.3886 91.8051 55.2875 94.2185C58.697 97.0573 61.1513 100.387 62.4618 103.883C63.7724 100.387 66.2262 97.0573 69.6362 94.2185V94.2189ZM95.9476 27.9661L110.806 62.1788C110.571 62.2332 110.335 62.2872 110.098 62.3393C105.882 63.2744 101.321 63.8458 96.5466 63.9809C96.3476 63.9864 96.1481 63.9914 95.9476 63.9954V27.9661ZM94.2686 64.0118C94.1584 64.0113 94.0468 64.0109 93.9379 64.0068C90.0032 63.9914 86.2042 63.6689 82.6038 63.0926C82.2963 63.0454 81.9911 62.9946 81.6869 62.9425L94.2686 27.9661V64.0118ZM26.7404 64.0118C26.6302 64.0113 26.5186 64.0109 26.4097 64.0068C22.4754 63.9914 18.6764 63.6689 15.076 63.0926C14.7681 63.0454 14.4629 62.9946 14.1586 62.9425L26.7404 27.9661V64.0118ZM43.2783 62.1788C43.0433 62.2332 42.8073 62.2872 42.5704 62.3393C38.3542 63.2744 33.7936 63.8458 29.0189 63.9809C28.8198 63.9864 28.6198 63.9914 28.4194 63.9954V27.9661L43.2783 62.1788Z" fill="#0BD8C9"/>
</svg>
