<?xml version="1.0" encoding="UTF-8"?>
<svg id="Camada_2" data-name="Camada 2" xmlns="http://www.w3.org/2000/svg" viewBox="0 0 584.55 74.31">
  <defs>
    <style>
      .cls-1 {
        fill: #2bcbba;
      }

      .cls-2 {
        fill: #0fb9b1;
      }
    </style>
  </defs>
  <g id="Camada_1-2" data-name="Camada 1">
    <g>
      <path class="cls-1" d="m65.85,56.33c-5-1.32-31.62-7.58-59.26.51-.46.14-.67.68-.41,1.09,2.2,3.42,11.68,16.37,28.82,16.37,21.17,0,29.51-13.49,31.3-16.95.21-.41,0-.91-.45-1.03Z"/>
      <g>
        <path class="cls-2" d="m24.39,21.04L30.41,1.31c.13-.41-.23-.82-.65-.74C18.54,2.63,9.13,9.84,4.05,19.66c3.02.32,10.43,1.03,20.34,1.39Z"/>
        <path class="cls-2" d="m2.9,22.09c-1.86,4.37-2.9,9.19-2.9,14.24,0,6.17,1.54,11.98,4.26,17.07.42.79,1.33,1.17,2.19.92,2.7-.77,5.39-1.4,8.05-1.93.21-.04.37-.19.44-.39l8.61-28.21c-9.78-.43-17.21-1.26-20.65-1.7Z"/>
      </g>
      <g>
        <path class="cls-2" d="m26.98,23.93l-8.47,27.76c5.83-.92,11.48-1.32,16.75-1.39v-26.23c-2.88,0-5.65-.06-8.28-.14Z"/>
        <path class="cls-2" d="m35.26,21.25V.28c0-.16-.13-.28-.29-.28h-.3c-.24.02-.44.18-.51.41l-6.33,20.74c2.37.06,4.85.1,7.43.1Z"/>
        <path class="cls-2" d="m38.73,21.25V.28c0-.16.13-.28.29-.28h.3c.24.02.44.18.51.41l6.33,20.74c-2.37.06-4.85.1-7.43.1Z"/>
      </g>
      <path class="cls-2" d="m46.62,23.86c-2.74.11-5.41.18-8.01.2v26.25c6.07.09,11.54.6,16.09,1.22l-8.08-27.67Z"/>
      <g>
        <path class="cls-2" d="m49.23,20.96c6.22-.27,12.72-.77,19.28-1.57C63.59,10.11,54.75,3.17,44.26.83c-.43-.1-.81.31-.68.74l5.66,19.39Z"/>
        <path class="cls-2" d="m72.69,34.47c-.22-4.49-1.28-8.78-3.02-12.71-6.68.98-13.3,1.59-19.64,1.93l8.21,28.14c.04.15.17.25.32.28,3.59.61,6.34,1.23,7.99,1.64.91.23,1.86-.2,2.28-1.04,2.75-5.44,4.18-11.66,3.85-18.24Z"/>
      </g>
    </g>
    <g>
      <g>
        <path class="cls-2" d="m125.26,34.62c4.1-2.58,6.17-6.37,6.17-11.29,0-4.54-1.5-8.13-4.45-10.67-2.91-2.5-7.06-3.77-12.33-3.77h-27.59v56.09h26.23c6.46,0,11.54-1.41,15.09-4.19,3.63-2.85,5.47-6.85,5.47-11.91,0-3.88-.93-7.18-2.76-9.79-1.43-2.04-3.38-3.53-5.83-4.46Zm-26.63-15.9h14.66c4.48,0,6.57,1.99,6.57,6.27,0,2.16-.62,3.74-1.89,4.82-1.32,1.13-2.9,1.68-4.83,1.68h-14.51v-12.77Zm21.61,34.48c-1.4,1.31-3.27,1.94-5.74,1.94h-15.87v-14.73h15.87c2.35,0,4.27.61,5.7,1.83,1.4,1.18,2.08,2.96,2.08,5.43s-.67,4.25-2.04,5.54Z"/>
        <path class="cls-2" d="m185.1,49.85c0-3.52-.75-6.42-2.22-8.61-.99-1.47-2.29-2.56-3.88-3.24,4.66-2.54,7.01-7.05,7.01-13.47,0-5.15-1.69-9.11-5.01-11.75-3.26-2.59-7.8-3.9-13.51-3.9h-27.21v56.09h11.57v-22.22h13.15c1.69,0,3.16.2,4.36.59,1.12.37,2.02.98,2.75,1.89.75.92,1.31,2.24,1.68,3.91.38,1.76.58,4.03.58,6.76,0,4.3.54,7.13,1.64,8.64l.32.43h12.99l-1.52-1.76c-1.79-2.06-2.69-6.55-2.69-13.36Zm-18.6-16.41h-14.66v-14.73h14.58c2.89,0,4.97.57,6.2,1.69,1.2,1.1,1.81,2.94,1.81,5.49,0,5.15-2.52,7.55-7.93,7.55Z"/>
        <path class="cls-2" d="m231.68,34.62c4.1-2.58,6.17-6.37,6.17-11.29,0-4.54-1.5-8.13-4.45-10.67-2.91-2.5-7.06-3.77-12.33-3.77h-27.59v56.09h26.23c6.46,0,11.54-1.41,15.09-4.19,3.63-2.85,5.47-6.85,5.47-11.91,0-3.88-.93-7.18-2.76-9.79-1.43-2.04-3.38-3.53-5.83-4.46Zm-26.63-15.9h14.66c4.48,0,6.57,1.99,6.57,6.27,0,2.16-.62,3.74-1.89,4.82-1.32,1.13-2.9,1.68-4.83,1.68h-14.51v-12.77Zm21.61,34.48c-1.4,1.31-3.27,1.94-5.74,1.94h-15.87v-14.73h15.87c2.35,0,4.27.61,5.7,1.83,1.4,1.18,2.08,2.96,2.08,5.43s-.67,4.25-2.04,5.54Z"/>
      </g>
      <g>
        <path class="cls-2" d="m263.79,25l-15.05,39.22h8.42l3.54-9.99h14.01l3.54,9.99h8.69l-15.11-39.22h-8.05Zm-.77,22.73l4.74-13.46,4.69,13.46h-9.43Z"/>
        <path class="cls-2" d="m316.33,45.89c-.73-.9-1.62-1.69-2.63-2.35-1.01-.66-2.15-1.16-3.39-1.5l-10.09-2.64c-2.86-.76-4.26-2.15-4.26-4.25,0-1.33.53-2.32,1.62-3.02,1.17-.76,2.71-1.15,4.56-1.15,4.6,0,7.02,1.94,7.4,5.92v.74h8.09v-.74c0-1.9-.38-3.66-1.13-5.23-.75-1.57-1.81-2.93-3.15-4.06-1.34-1.11-2.96-1.98-4.82-2.59-1.85-.6-3.91-.91-6.12-.91-2.07,0-4.02.28-5.77.83-1.77.55-3.32,1.34-4.59,2.34-1.3,1.01-2.33,2.27-3.06,3.74-.74,1.47-1.11,3.13-1.11,4.93,0,5.36,3.16,8.88,9.38,10.44,2.88.74,5.22,1.35,7.02,1.85,1.77.49,3.02.86,3.71,1.1,1.78.61,2.61,1.86,2.61,3.95,0,1.46-.59,2.61-1.79,3.53-1.25.95-3.09,1.44-5.44,1.44-2.71,0-4.89-.62-6.47-1.83-1.55-1.19-2.32-2.99-2.35-5.52v-.73h-8.1v.75c.05,2.21.47,4.22,1.27,5.98.8,1.77,1.93,3.28,3.36,4.51,1.43,1.23,3.18,2.16,5.2,2.79,2,.62,4.24.93,6.67.93s4.57-.3,6.48-.88c1.93-.59,3.6-1.44,4.95-2.54,1.37-1.1,2.44-2.44,3.19-3.98.75-1.54,1.13-3.29,1.13-5.19,0-1.24-.21-2.45-.63-3.58-.41-1.13-1-2.16-1.73-3.07Z"/>
        <path class="cls-2" d="m350.58,45.89c-.73-.9-1.62-1.69-2.63-2.35-1.01-.66-2.15-1.16-3.39-1.5l-10.09-2.64c-2.86-.76-4.26-2.15-4.26-4.25,0-1.33.53-2.32,1.62-3.02,1.17-.76,2.71-1.15,4.56-1.15,4.6,0,7.02,1.94,7.4,5.92v.74h8.09v-.74c0-1.9-.38-3.66-1.13-5.23-.75-1.57-1.81-2.93-3.15-4.06-1.34-1.11-2.96-1.98-4.82-2.59-1.85-.6-3.91-.91-6.12-.91-2.07,0-4.02.28-5.77.83-1.77.55-3.32,1.34-4.59,2.34-1.3,1.01-2.33,2.27-3.06,3.74-.74,1.47-1.11,3.13-1.11,4.93,0,5.36,3.16,8.88,9.38,10.44,2.88.74,5.22,1.35,7.02,1.85,1.77.49,3.02.86,3.71,1.1,1.78.61,2.61,1.86,2.61,3.95,0,1.46-.59,2.61-1.79,3.53-1.25.95-3.09,1.44-5.44,1.44-2.71,0-4.89-.62-6.47-1.83-1.55-1.19-2.32-2.99-2.35-5.52v-.73h-8.1v.75c.05,2.21.47,4.22,1.27,5.98.8,1.77,1.93,3.28,3.36,4.51,1.43,1.23,3.18,2.16,5.2,2.79,2,.62,4.24.93,6.67.93s4.57-.3,6.48-.88c1.93-.59,3.6-1.44,4.95-2.54,1.37-1.1,2.44-2.44,3.19-3.98.75-1.54,1.13-3.29,1.13-5.19,0-1.24-.21-2.45-.63-3.58-.41-1.13-1-2.16-1.73-3.07Z"/>
        <polygon class="cls-2" points="365.31 47.47 384.33 47.47 384.33 40.59 365.31 40.59 365.31 32.19 385.86 32.19 385.86 25 357.21 25 357.21 64.22 386.23 64.22 386.23 57.03 365.31 57.03 365.31 47.47"/>
        <path class="cls-2" d="m418.12,45.89c-.73-.9-1.62-1.69-2.63-2.35-1.01-.66-2.15-1.16-3.39-1.5l-10.09-2.64c-2.86-.76-4.26-2.15-4.26-4.25,0-1.33.53-2.32,1.62-3.02,1.17-.76,2.71-1.15,4.56-1.15,4.6,0,7.02,1.94,7.4,5.92v.74h8.09v-.74c0-1.9-.38-3.66-1.13-5.23-.75-1.57-1.81-2.93-3.15-4.06-1.34-1.11-2.96-1.98-4.82-2.59-1.85-.6-3.91-.91-6.12-.91-2.07,0-4.02.28-5.77.83-1.77.55-3.32,1.34-4.59,2.34-1.3,1.01-2.33,2.27-3.06,3.74-.74,1.47-1.11,3.13-1.11,4.93,0,5.36,3.16,8.88,9.38,10.44,2.88.74,5.22,1.35,7.02,1.85,1.77.49,3.02.86,3.71,1.1,1.78.61,2.61,1.86,2.61,3.95,0,1.46-.59,2.61-1.79,3.53-1.25.95-3.09,1.44-5.44,1.44-2.71,0-4.89-.62-6.47-1.83-1.55-1.19-2.32-2.99-2.35-5.52v-.73h-8.1v.75c.05,2.21.47,4.22,1.27,5.98.8,1.77,1.93,3.28,3.36,4.51,1.43,1.23,3.18,2.16,5.2,2.79,2,.62,4.24.93,6.67.93s4.57-.3,6.48-.88c1.93-.59,3.6-1.44,4.95-2.54,1.37-1.1,2.44-2.44,3.19-3.98.75-1.54,1.13-3.29,1.13-5.19,0-1.24-.21-2.45-.63-3.58-.41-1.13-1-2.16-1.73-3.07Z"/>
        <path class="cls-2" d="m452.37,45.89c-.73-.9-1.62-1.69-2.63-2.35-1.01-.66-2.15-1.16-3.39-1.5l-10.09-2.64c-2.86-.76-4.26-2.15-4.26-4.25,0-1.33.53-2.32,1.62-3.02,1.17-.76,2.71-1.15,4.56-1.15,4.6,0,7.02,1.94,7.4,5.92v.74h8.09v-.74c0-1.9-.38-3.66-1.13-5.23-.75-1.57-1.81-2.93-3.15-4.06-1.34-1.11-2.96-1.98-4.82-2.59-1.85-.6-3.91-.91-6.12-.91-2.07,0-4.02.28-5.77.83-1.77.55-3.32,1.34-4.59,2.34-1.3,1.01-2.33,2.27-3.06,3.74-.74,1.47-1.11,3.13-1.11,4.93,0,5.36,3.16,8.88,9.38,10.44,2.88.74,5.22,1.35,7.02,1.85,1.77.49,3.02.86,3.71,1.1,1.78.61,2.61,1.86,2.61,3.95,0,1.46-.59,2.61-1.79,3.53-1.25.95-3.09,1.44-5.44,1.44-2.71,0-4.89-.62-6.47-1.83-1.55-1.19-2.32-2.99-2.35-5.52v-.73h-8.1v.75c.05,2.21.47,4.22,1.27,5.98.8,1.77,1.93,3.28,3.36,4.51,1.43,1.23,3.18,2.16,5.2,2.79,2,.62,4.24.93,6.67.93s4.57-.3,6.48-.88c1.93-.59,3.6-1.44,4.95-2.54,1.37-1.1,2.44-2.44,3.19-3.98.75-1.54,1.13-3.29,1.13-5.19,0-1.24-.21-2.45-.63-3.58-.41-1.13-1-2.16-1.73-3.07Z"/>
        <path class="cls-2" d="m489.39,29.92c-1.67-1.81-3.68-3.25-5.98-4.27-2.31-1.02-4.86-1.54-7.6-1.54s-5.29.52-7.6,1.54c-2.31,1.03-4.32,2.47-5.98,4.3-1.66,1.83-2.96,4.02-3.87,6.51-.91,2.48-1.37,5.23-1.37,8.16s.46,5.67,1.37,8.16c.91,2.49,2.2,4.68,3.84,6.51,1.65,1.83,3.65,3.28,5.96,4.3s4.88,1.54,7.65,1.54,5.29-.52,7.6-1.54c2.3-1.02,4.31-2.46,5.98-4.27,1.66-1.81,2.97-4,3.88-6.51.91-2.5,1.37-5.25,1.37-8.18s-.46-5.68-1.37-8.18c-.91-2.51-2.22-4.7-3.88-6.51Zm-3.61,20.37c-.5,1.68-1.23,3.12-2.17,4.29-.93,1.16-2.06,2.07-3.37,2.7-1.3.63-2.79.96-4.43.96s-3.18-.33-4.48-.98c-1.3-.65-2.43-1.58-3.34-2.75-.92-1.19-1.65-2.64-2.15-4.3-.5-1.69-.76-3.57-.76-5.6s.26-3.97.76-5.65c.5-1.67,1.22-3.11,2.15-4.3.91-1.17,2.03-2.09,3.33-2.72s2.79-.95,4.43-.95,3.13.32,4.43.95c1.3.63,2.43,1.55,3.37,2.71.94,1.17,1.68,2.61,2.19,4.27.52,1.68.79,3.6.79,5.7s-.26,3.98-.76,5.68Z"/>
        <path class="cls-2" d="m530.52,53.65c0-2.46-.52-4.49-1.55-6.02-.69-1.03-1.6-1.79-2.71-2.27,3.26-1.77,4.9-4.93,4.9-9.42,0-3.6-1.18-6.37-3.5-8.22-2.28-1.81-5.45-2.72-9.45-2.72h-19.03v39.22h8.09v-15.54h9.19c1.18,0,2.21.14,3.05.41.78.26,1.41.69,1.93,1.32.52.65.92,1.56,1.17,2.73.27,1.23.4,2.82.4,4.73,0,3.01.38,4.98,1.15,6.04l.22.3h9.08l-1.06-1.23c-1.25-1.44-1.88-4.58-1.88-9.34Zm-13-11.47h-10.25v-10.3h10.2c2.02,0,3.48.4,4.34,1.18.84.77,1.26,2.06,1.26,3.84,0,3.6-1.76,5.28-5.55,5.28Z"/>
        <rect class="cls-2" x="536.38" y="25" width="8.09" height="39.22"/>
        <path class="cls-2" d="m569.45,25h-8.05l-15.05,39.22h8.42l3.54-9.99h14.01l3.54,9.99h8.69l-15.11-39.22Zm-8.81,22.73l4.74-13.46,4.69,13.46h-9.43Z"/>
      </g>
    </g>
  </g>
</svg>