<svg width="136" height="116" viewBox="0 0 136 116" fill="none" xmlns="http://www.w3.org/2000/svg">
<path d="M90.1785 74.0368L101.888 85.6853L99.108 88.4508C98.6628 88.8938 98.4129 89.494 98.4129 90.1196C98.4129 90.7453 98.6628 91.3461 99.108 91.7884L121.318 113.883C122.691 115.248 124.515 116 126.457 116C128.398 116 130.222 115.248 131.595 113.883L133.872 111.618C135.244 110.252 136 108.437 136 106.506C136 104.575 135.244 102.76 133.872 101.395L111.662 79.3003C110.735 78.3785 109.232 78.3778 108.306 79.3003L105.244 82.3463L93.5343 70.6979" fill="#0FB9B1"/>
<path d="M123.701 9.14461C123.7 9.10025 123.698 9.05588 123.694 9.01152C123.69 8.96651 123.686 8.92149 123.681 8.87713C123.675 8.83733 123.669 8.79819 123.662 8.75839C123.654 8.71142 123.645 8.66445 123.634 8.61943C123.626 8.58225 123.616 8.54571 123.606 8.50918C123.593 8.46286 123.58 8.41719 123.564 8.37218C123.551 8.33564 123.538 8.29911 123.523 8.26323C123.506 8.22082 123.489 8.17776 123.471 8.13666C123.454 8.09882 123.435 8.06098 123.416 8.0238C123.397 7.98531 123.376 7.94812 123.355 7.91093C123.334 7.87244 123.31 7.83526 123.286 7.79742C123.263 7.76284 123.241 7.72761 123.216 7.69434C123.191 7.65846 123.164 7.62323 123.137 7.588C123.11 7.55407 123.082 7.52015 123.054 7.48688C123.027 7.45556 122.998 7.42425 122.969 7.39424C122.936 7.35966 122.901 7.32639 122.867 7.29312C122.85 7.27746 122.835 7.25985 122.818 7.24484C122.805 7.23375 122.791 7.22462 122.779 7.21353C122.742 7.18221 122.704 7.1522 122.666 7.12284C122.634 7.09805 122.602 7.07391 122.569 7.05108C122.532 7.02498 122.494 7.0015 122.456 6.97801C122.42 6.95518 122.384 6.93234 122.347 6.91147C122.309 6.89059 122.271 6.87167 122.233 6.85341C122.194 6.83383 122.154 6.81361 122.115 6.79665C122.076 6.77968 122.036 6.76533 121.997 6.74967C121.956 6.73402 121.914 6.71771 121.873 6.70401C121.833 6.69096 121.792 6.68052 121.751 6.66943C121.708 6.65769 121.665 6.64594 121.621 6.63616C121.581 6.62702 121.541 6.6205 121.5 6.61398C121.454 6.60615 121.408 6.59832 121.362 6.5931C121.323 6.58853 121.283 6.58592 121.244 6.58266C121.194 6.57875 121.146 6.57614 121.097 6.57549C121.08 6.57549 121.063 6.57288 121.047 6.57288H104.652C103.183 6.57288 101.993 7.75697 101.993 9.21833C101.993 10.6797 103.184 11.8638 104.652 11.8638H115.103L76.539 54.7821L49.1556 30.5372C48.1889 29.6806 46.7429 29.6415 45.7296 30.4446L1.43293 65.5753C0.284607 66.4867 0.0957338 68.1509 1.01125 69.2933C1.53589 69.9489 2.31106 70.2895 3.09213 70.2895C3.67318 70.2895 4.25816 70.1009 4.74805 69.7121L47.2898 35.971L74.9821 60.4886C76.0779 61.4593 77.7562 61.3628 78.7327 60.2752L118.694 14.6462L118.385 24.9951C118.385 26.4565 119.576 27.6406 121.044 27.6406C122.513 27.6406 123.704 26.4565 123.704 24.9951V9.21833C123.704 9.19354 123.7 9.1694 123.7 9.14461H123.701Z" fill="#13D8CA"/>
<path d="M62.8063 86.9457C56.9079 86.9457 51.1847 85.7962 45.7952 83.5285C40.5914 81.339 35.9181 78.2043 31.9052 74.2129C27.8923 70.2216 24.7418 65.5726 22.5409 60.3953C20.2613 55.0339 19.1057 49.3405 19.1057 43.4728C19.1057 37.6052 20.2613 31.9118 22.5409 26.5504C24.7418 21.3737 27.8929 16.7247 31.9052 12.7327C35.9181 8.74076 40.5907 5.60666 45.7952 3.41723C51.1847 1.14952 56.9079 0 62.8063 0C68.7047 0 74.4279 1.14952 79.8174 3.41723C85.0212 5.60666 89.6945 8.74141 93.7074 12.7327C97.7203 16.7247 100.871 21.373 103.072 26.5504C105.351 31.9118 106.507 37.6052 106.507 43.4728C106.507 49.3405 105.351 55.0339 103.072 60.3953C100.871 65.572 97.7197 70.2209 93.7074 74.2129C89.6945 78.2049 85.0219 81.339 79.8174 83.5285C74.4279 85.7962 68.7047 86.9457 62.8063 86.9457ZM62.8063 4.72137C41.3266 4.72137 23.8512 22.1057 23.8512 43.4735C23.8512 64.8413 41.3266 82.2256 62.8063 82.2256C84.2861 82.2256 101.761 64.8413 101.761 43.4735C101.761 22.1057 84.2861 4.72071 62.8063 4.72071V4.72137Z" fill="#0FB9B1"/>
<path d="M0 77.0267C0.466281 77.5108 1.08996 77.7548 1.71429 77.7548L0 77.0267Z" fill="#231F20"/>
</svg>
