<svg xmlns="http://www.w3.org/2000/svg" width="194" height="194" viewBox="0 0 194 194">
    <g fill="none" fill-rule="evenodd">
        <path fill="#485670" fill-rule="nonzero" d="M0 0h194v194H0z"/>
        <path fill="#485670" d="M17 176.654h159.654V17H17z"/>
        <path fill="#EE9560" d="M154.063 42.214H82.377c-4.15 0-7.527 3.377-7.527 7.527v4.448h37.848c6.107 0 11.075 4.969 11.075 11.076v43.252h22.197l15.62 42.088V49.74c0-4.15-3.376-7.527-7.527-7.527"/>
        <path fill="#EC7F35" d="M97.758 101.409c-10.498 0-19.04-8.541-19.04-19.04 0-10.498 8.542-19.04 19.04-19.04 10.499 0 19.04 8.542 19.04 19.04 0 10.499-8.541 19.04-19.04 19.04m-15.38 7.109h37.849V65.264c0-4.152-3.377-7.53-7.53-7.53H74.852v43.258a7.531 7.531 0 0 0 7.526 7.525"/>
        <path fill="#FDC79A" d="M72.643 106.264c-.048-.09-.092-.18-.139-.27-.035-.07-.072-.137-.105-.206a11.01 11.01 0 0 1-1.094-4.798V57.736H41.013c-4.15 0-7.527 3.377-7.527 7.527v88.169l15.794-29.394h63.419c4.15 0 7.527-3.376 7.527-7.526v-4.449H82.377c-4.198 0-7.857-2.348-9.734-5.8"/>
        <path fill="#FDC79A" d="M109.003 79.239l-4.867-3.989-5.756 7.024-7.254-7.254-4.449 4.45 12.166 12.165z"/>
    </g>
</svg>
