<?xml version="1.0" encoding="UTF-8"?>
<svg id="Camada_2" data-name="Camada 2" xmlns="http://www.w3.org/2000/svg" viewBox="0 0 601.76 118.26">
  <defs>
    <style>
      .cls-1 {
        fill: #2bcbba;
      }

      .cls-2 {
        fill: #0fb9b1;
      }
    </style>
  </defs>
  <g id="Camada_1-2" data-name="Camada 1">
    <g>
      <g>
        <path class="cls-1" d="m104.8,89.65c-7.96-2.1-50.32-12.06-94.31.82-.74.22-1.06,1.08-.65,1.73,3.5,5.44,18.58,26.06,45.87,26.06,33.7,0,46.96-21.46,49.81-26.97.34-.66,0-1.45-.72-1.64Z"/>
        <g>
          <path class="cls-2" d="m38.81,33.49L48.39,2.08c.2-.65-.36-1.3-1.03-1.17C29.51,4.19,14.52,15.66,6.44,31.28c4.81.52,16.59,1.64,32.37,2.21Z"/>
          <path class="cls-2" d="m4.61,35.16C1.64,42.12,0,49.78,0,57.82c0,9.82,2.46,19.07,6.78,27.17.67,1.26,2.12,1.86,3.49,1.47,4.3-1.23,8.58-2.23,12.82-3.07.33-.07.6-.31.69-.63l13.7-44.9c-15.57-.69-27.39-2.01-32.87-2.71Z"/>
        </g>
        <g>
          <path class="cls-2" d="m42.94,38.08l-13.48,44.19c9.29-1.47,18.27-2.11,26.66-2.21v-41.74c-4.59-.01-9-.1-13.18-.23Z"/>
          <path class="cls-2" d="m56.12,33.82V.44c0-.25-.21-.45-.46-.44l-.48.02c-.38.01-.71.27-.82.63l-10.07,33.01c3.77.09,7.72.15,11.83.16Z"/>
          <path class="cls-2" d="m61.63,33.82V.44c0-.25.21-.45.46-.44l.48.02c.38.01.71.27.82.63l10.07,33.01c-3.77.09-7.72.15-11.83.16Z"/>
        </g>
        <path class="cls-2" d="m74.2,37.97c-4.36.18-8.61.28-12.75.32v41.77c9.66.14,18.37.95,25.6,1.94l-12.85-44.03Z"/>
        <g>
          <path class="cls-2" d="m78.36,33.36c9.9-.44,20.25-1.22,30.69-2.5-7.84-14.77-21.9-25.81-38.61-29.54-.69-.15-1.28.5-1.09,1.17l9.01,30.87Z"/>
          <path class="cls-2" d="m115.68,54.86c-.36-7.15-2.04-13.97-4.8-20.22-10.63,1.56-21.16,2.53-31.25,3.08l13.07,44.78c.07.23.27.4.5.44,5.71.96,10.08,1.96,12.71,2.61,1.45.36,2.96-.32,3.64-1.65,4.38-8.66,6.66-18.55,6.13-29.03Z"/>
        </g>
      </g>
      <g>
        <g>
          <path class="cls-1" d="m135.13,96.94v1.73c0,2.98,1.42,4.06,3.75,4.06,3.12,0,3.99-1.87,3.99-4.3v-18.39h3.37v18.18c0,5.83-3.82,7.39-7.18,7.39-5.79,0-7.08-3.89-7.08-6.21v-2.46h3.16Z"/>
          <path class="cls-1" d="m165.6,104.96v-2.64l-.07-.07c-1.28,2.12-2.84,3.23-5.76,3.23-2.67,0-5.9-1.28-5.9-5.62v-13.05h3.05v12.04c0,2.98,1.53,3.99,3.5,3.99,3.85,0,5-3.4,5-6.04v-9.99h3.05v18.15h-2.88Z"/>
          <path class="cls-1" d="m179.99,104.96h-3.05v-18.15h2.88v3.02h.07c1.21-2.12,2.81-3.54,5.1-3.54.38,0,.56.03.8.1v3.16h-1.15c-2.84,0-4.65,2.22-4.65,4.86v10.55Z"/>
          <path class="cls-1" d="m195.44,84.38h-2.32l3.09-4.89h3.75l-4.51,4.89Zm.73,20.58h-3.05v-18.15h3.05v18.15Z"/>
          <path class="cls-1" d="m220.24,104.96h-2.88v-2.5h-.07c-1.32,2.46-3.4,3.02-5.17,3.02-6.18,0-7.98-5.79-7.98-10.13,0-5.1,2.74-9.06,7.56-9.06,3.3,0,4.68,2.05,5.41,3.09l.07-.24v-9.09h3.05v24.91Zm-8.05-2.12c1.94,0,4.96-1.28,4.96-6.11,0-2.95-.49-7.7-4.89-7.7-4.72,0-4.96,4.48-4.96,6.8,0,3.99,1.56,7.01,4.89,7.01Z"/>
          <path class="cls-1" d="m228.02,83.51v-3.47h3.05v3.47h-3.05Zm3.05,21.44h-3.05v-18.15h3.05v18.15Z"/>
          <path class="cls-1" d="m250.47,92.92c-.38-2.43-1.73-3.89-4.3-3.89-3.78,0-5,3.61-5,6.84s.76,6.97,4.96,6.97c2.05,0,3.82-1.53,4.34-4.3h2.95c-.31,2.88-2.08,6.94-7.39,6.94s-8.12-3.85-8.12-9.09c0-5.62,2.71-10.1,8.71-10.1,4.75,0,6.56,3.47,6.8,6.63h-2.95Z"/>
          <path class="cls-1" d="m259.83,92.32c.14-4.34,3.02-6.04,7.5-6.04,1.46,0,6.73.42,6.73,5.07v10.44c0,.76.38,1.08,1.01,1.08.28,0,.66-.07,1.01-.14v2.22c-.52.14-.97.35-1.67.35-2.71,0-3.12-1.39-3.23-2.78-1.18,1.28-3.02,2.95-6.56,2.95-3.33,0-5.69-2.12-5.69-5.24,0-1.53.45-5.07,5.52-5.69l5.03-.62c.73-.07,1.6-.35,1.6-2.15,0-1.91-1.39-2.95-4.27-2.95-3.47,0-3.96,2.12-4.16,3.5h-2.81Zm11.17,3.37c-.49.38-1.25.66-5.03,1.15-1.49.21-3.89.66-3.89,2.95,0,1.98,1.01,3.16,3.3,3.16,2.84,0,5.62-1.84,5.62-4.27v-2.98Z"/>
        </g>
        <g>
          <path class="cls-2" d="m167.54,43.08c3.87-2.44,5.82-6.01,5.82-10.65,0-4.28-1.41-7.67-4.2-10.06-2.74-2.36-6.66-3.56-11.63-3.56h-26.03v52.91h24.74c6.1,0,10.89-1.33,14.24-3.96,3.42-2.68,5.16-6.46,5.16-11.23,0-3.66-.88-6.77-2.61-9.24-1.35-1.92-3.19-3.33-5.5-4.21Zm-25.12-15h13.83c4.23,0,6.2,1.88,6.2,5.92,0,2.04-.58,3.53-1.79,4.55-1.25,1.06-2.74,1.58-4.56,1.58h-13.69v-12.04Zm20.38,32.53c-1.32,1.23-3.09,1.83-5.41,1.83h-14.97v-13.9h14.97c2.22,0,4.03.58,5.38,1.72,1.32,1.12,1.96,2.79,1.96,5.12s-.63,4.01-1.93,5.22Z"/>
          <path class="cls-2" d="m223.99,57.45c0-3.33-.71-6.06-2.1-8.12-.94-1.39-2.16-2.41-3.66-3.06,4.39-2.39,6.61-6.66,6.61-12.71,0-4.86-1.59-8.59-4.73-11.09-3.07-2.44-7.36-3.68-12.75-3.68h-25.67v52.91h10.92v-20.96h12.4c1.6,0,2.98.19,4.11.56,1.06.35,1.91.93,2.6,1.78.71.87,1.24,2.11,1.58,3.68.36,1.66.55,3.8.55,6.38,0,4.06.51,6.73,1.55,8.15l.3.41h12.26l-1.44-1.66c-1.68-1.94-2.54-6.18-2.54-12.61Zm-17.54-15.48h-13.83v-13.9h13.76c2.72,0,4.69.54,5.85,1.59,1.13,1.03,1.71,2.78,1.71,5.18,0,4.86-2.38,7.13-7.49,7.13Z"/>
          <path class="cls-2" d="m267.94,43.08c3.87-2.44,5.82-6.01,5.82-10.65,0-4.28-1.41-7.67-4.2-10.06-2.74-2.36-6.66-3.56-11.63-3.56h-26.03v52.91h24.74c6.1,0,10.89-1.33,14.24-3.96,3.42-2.68,5.16-6.46,5.16-11.23,0-3.66-.88-6.77-2.61-9.24-1.35-1.92-3.19-3.33-5.5-4.21Zm-25.12-15h13.83c4.23,0,6.2,1.88,6.2,5.92,0,2.04-.58,3.53-1.79,4.55-1.25,1.06-2.74,1.58-4.56,1.58h-13.69v-12.04Zm20.38,32.53c-1.32,1.23-3.09,1.83-5.41,1.83h-14.97v-13.9h14.97c2.22,0,4.03.58,5.38,1.72,1.32,1.12,1.96,2.79,1.96,5.12s-.63,4.01-1.93,5.22Z"/>
        </g>
        <g>
          <path class="cls-2" d="m299.17,34l-14.2,37h7.95l3.34-9.42h13.22l3.34,9.42h8.2l-14.25-37h-7.59Zm-.72,21.44l4.47-12.7,4.43,12.7h-8.89Z"/>
          <path class="cls-2" d="m348.73,53.71c-.69-.85-1.52-1.6-2.48-2.21-.95-.62-2.03-1.09-3.19-1.41l-9.52-2.49c-2.7-.71-4.02-2.02-4.02-4.01,0-1.25.5-2.19,1.53-2.85,1.11-.72,2.56-1.08,4.31-1.08,4.34,0,6.62,1.83,6.98,5.58v.7h7.63v-.7c0-1.79-.36-3.45-1.07-4.94-.7-1.48-1.71-2.77-2.97-3.83-1.26-1.05-2.79-1.87-4.54-2.45-1.74-.57-3.68-.86-5.78-.86-1.96,0-3.79.26-5.44.78-1.67.52-3.13,1.27-4.33,2.21-1.22.96-2.2,2.14-2.89,3.53-.69,1.39-1.05,2.95-1.05,4.65,0,5.06,2.98,8.38,8.85,9.85,2.72.7,4.93,1.28,6.62,1.74,1.67.46,2.85.81,3.5,1.04,1.68.57,2.47,1.75,2.47,3.72,0,1.38-.55,2.47-1.69,3.33-1.18.9-2.91,1.35-5.14,1.35-2.56,0-4.61-.58-6.1-1.73-1.46-1.12-2.19-2.82-2.22-5.21v-.69h-7.64v.71c.05,2.08.44,3.98,1.2,5.64.75,1.67,1.82,3.1,3.17,4.26,1.35,1.16,3,2.04,4.91,2.63,1.89.58,4,.88,6.29.88s4.31-.28,6.11-.83c1.82-.56,3.4-1.36,4.67-2.39,1.29-1.04,2.3-2.3,3.01-3.75.71-1.45,1.07-3.1,1.07-4.89,0-1.17-.2-2.31-.59-3.38-.39-1.07-.94-2.04-1.64-2.89Z"/>
          <path class="cls-2" d="m381.04,53.71c-.69-.85-1.52-1.6-2.48-2.21-.95-.62-2.03-1.09-3.19-1.41l-9.52-2.49c-2.7-.71-4.02-2.02-4.02-4.01,0-1.25.5-2.19,1.53-2.85,1.11-.72,2.56-1.08,4.31-1.08,4.34,0,6.62,1.83,6.98,5.58v.7h7.63v-.7c0-1.79-.36-3.45-1.07-4.94-.7-1.48-1.71-2.77-2.97-3.83-1.26-1.05-2.79-1.87-4.54-2.45-1.74-.57-3.68-.86-5.78-.86-1.96,0-3.79.26-5.44.78-1.67.52-3.13,1.27-4.33,2.21-1.22.96-2.2,2.14-2.89,3.53-.69,1.39-1.05,2.95-1.05,4.65,0,5.06,2.98,8.38,8.85,9.85,2.72.7,4.93,1.28,6.62,1.74,1.67.46,2.85.81,3.5,1.04,1.68.57,2.47,1.75,2.47,3.72,0,1.38-.55,2.47-1.69,3.33-1.18.9-2.91,1.35-5.14,1.35-2.56,0-4.61-.58-6.1-1.73-1.46-1.12-2.19-2.82-2.22-5.21v-.69h-7.64v.71c.05,2.08.44,3.98,1.2,5.64.75,1.67,1.82,3.1,3.17,4.26,1.35,1.16,3,2.04,4.91,2.63,1.89.58,4,.88,6.29.88s4.31-.28,6.11-.83c1.82-.56,3.4-1.36,4.67-2.39,1.29-1.04,2.3-2.3,3.01-3.75.71-1.45,1.07-3.1,1.07-4.89,0-1.17-.2-2.31-.59-3.38-.39-1.07-.94-2.04-1.64-2.89Z"/>
          <polygon class="cls-2" points="394.93 55.2 412.88 55.2 412.88 48.71 394.93 48.71 394.93 40.79 414.32 40.79 414.32 34 387.3 34 387.3 71 414.67 71 414.67 64.22 394.93 64.22 394.93 55.2"/>
          <path class="cls-2" d="m444.75,53.71c-.69-.85-1.52-1.6-2.48-2.21-.95-.62-2.03-1.09-3.19-1.41l-9.52-2.49c-2.7-.71-4.02-2.02-4.02-4.01,0-1.25.5-2.19,1.53-2.85,1.11-.72,2.56-1.08,4.31-1.08,4.34,0,6.62,1.83,6.98,5.58v.7h7.63v-.7c0-1.79-.36-3.45-1.07-4.94-.7-1.48-1.71-2.77-2.97-3.83-1.26-1.05-2.79-1.87-4.54-2.45-1.74-.57-3.68-.86-5.78-.86-1.96,0-3.79.26-5.44.78-1.67.52-3.13,1.27-4.33,2.21-1.22.96-2.2,2.14-2.89,3.53-.69,1.39-1.05,2.95-1.05,4.65,0,5.06,2.98,8.38,8.85,9.85,2.72.7,4.93,1.28,6.62,1.74,1.67.46,2.85.81,3.5,1.04,1.68.57,2.47,1.75,2.47,3.72,0,1.38-.55,2.47-1.69,3.33-1.18.9-2.91,1.35-5.14,1.35-2.56,0-4.61-.58-6.1-1.73-1.46-1.12-2.19-2.82-2.22-5.21v-.69h-7.64v.71c.05,2.08.44,3.98,1.2,5.64.75,1.67,1.82,3.1,3.17,4.26,1.35,1.16,3,2.04,4.91,2.63,1.89.58,4,.88,6.29.88s4.31-.28,6.11-.83c1.82-.56,3.4-1.36,4.67-2.39,1.29-1.04,2.3-2.3,3.01-3.75.71-1.45,1.07-3.1,1.07-4.89,0-1.17-.2-2.31-.59-3.38-.39-1.07-.94-2.04-1.64-2.89Z"/>
          <path class="cls-2" d="m477.06,53.71c-.69-.85-1.52-1.6-2.48-2.21-.95-.62-2.03-1.09-3.19-1.41l-9.52-2.49c-2.7-.71-4.02-2.02-4.02-4.01,0-1.25.5-2.19,1.53-2.85,1.11-.72,2.56-1.08,4.31-1.08,4.34,0,6.62,1.83,6.98,5.58v.7h7.63v-.7c0-1.79-.36-3.45-1.07-4.94-.7-1.48-1.71-2.77-2.97-3.83-1.26-1.05-2.79-1.87-4.54-2.45-1.74-.57-3.68-.86-5.78-.86-1.96,0-3.79.26-5.44.78-1.67.52-3.13,1.27-4.33,2.21-1.22.96-2.2,2.14-2.89,3.53-.69,1.39-1.05,2.95-1.05,4.65,0,5.06,2.98,8.38,8.85,9.85,2.72.7,4.93,1.28,6.62,1.74,1.67.46,2.85.81,3.5,1.04,1.68.57,2.47,1.75,2.47,3.72,0,1.38-.55,2.47-1.69,3.33-1.18.9-2.91,1.35-5.14,1.35-2.56,0-4.61-.58-6.1-1.73-1.46-1.12-2.19-2.82-2.22-5.21v-.69h-7.64v.71c.05,2.08.44,3.98,1.2,5.64.75,1.67,1.82,3.1,3.17,4.26,1.35,1.16,3,2.04,4.91,2.63,1.89.58,4,.88,6.29.88s4.31-.28,6.11-.83c1.82-.56,3.4-1.36,4.67-2.39,1.29-1.04,2.3-2.3,3.01-3.75.71-1.45,1.07-3.1,1.07-4.89,0-1.17-.2-2.31-.59-3.38-.39-1.07-.94-2.04-1.64-2.89Z"/>
          <path class="cls-2" d="m511.98,38.64c-1.57-1.71-3.47-3.06-5.64-4.03-2.18-.97-4.59-1.46-7.16-1.46s-4.99.49-7.16,1.46c-2.18.97-4.07,2.33-5.64,4.06-1.57,1.72-2.8,3.79-3.65,6.14-.86,2.34-1.29,4.93-1.29,7.69s.43,5.35,1.29,7.69c.86,2.35,2.08,4.41,3.63,6.14,1.55,1.73,3.44,3.09,5.62,4.06s4.6,1.46,7.21,1.46,4.99-.49,7.16-1.46c2.17-.96,4.07-2.32,5.64-4.03,1.57-1.71,2.8-3.77,3.66-6.14.85-2.36,1.29-4.96,1.29-7.72s-.43-5.36-1.29-7.72c-.86-2.37-2.09-4.44-3.66-6.14Zm-3.41,19.22c-.47,1.58-1.16,2.95-2.04,4.05-.88,1.09-1.94,1.95-3.18,2.55-1.23.6-2.63.9-4.18.9s-3-.31-4.22-.92c-1.23-.61-2.29-1.49-3.15-2.6-.87-1.12-1.55-2.49-2.03-4.06-.48-1.59-.72-3.37-.72-5.28s.24-3.74.72-5.33c.47-1.57,1.15-2.94,2.03-4.06.86-1.11,1.92-1.97,3.14-2.57s2.63-.9,4.18-.9,2.95.3,4.18.9c1.23.6,2.3,1.46,3.18,2.55.89,1.1,1.58,2.46,2.07,4.03.49,1.59.74,3.4.74,5.38s-.24,3.76-.72,5.36Z"/>
          <path class="cls-2" d="m550.78,61.03c0-2.32-.49-4.23-1.47-5.68-.66-.97-1.51-1.69-2.56-2.14,3.07-1.67,4.63-4.65,4.63-8.89,0-3.4-1.11-6.01-3.31-7.75-2.15-1.71-5.14-2.57-8.91-2.57h-17.95v37h7.63v-14.66h8.67c1.12,0,2.08.13,2.87.39.74.24,1.33.65,1.82,1.25.49.61.87,1.48,1.11,2.58.25,1.16.38,2.66.38,4.46,0,2.84.35,4.7,1.08,5.7l.21.29h8.57l-1-1.16c-1.18-1.36-1.77-4.32-1.77-8.81Zm-12.27-10.82h-9.67v-9.72h9.62c1.9,0,3.28.37,4.09,1.11.79.72,1.19,1.94,1.19,3.62,0,3.4-1.66,4.98-5.23,4.98Z"/>
          <rect class="cls-2" x="556.31" y="34" width="7.63" height="37"/>
          <path class="cls-2" d="m587.5,34h-7.59l-14.2,37h7.95l3.34-9.42h13.22l3.34,9.42h8.2l-14.25-37Zm-8.32,21.44l4.47-12.7,4.43,12.7h-8.89Z"/>
        </g>
      </g>
      <rect class="cls-1" x="145.76" y="71.64" width="0" height="8"/>
    </g>
  </g>
</svg>