<svg width="116" height="116" viewBox="0 0 116 116" fill="none" xmlns="http://www.w3.org/2000/svg">
<g clip-path="url(#clip0_118_18)">
<path d="M19.507 75.9926H13.5956C10.036 75.9926 7.14032 78.8884 7.14032 82.448V113.486C7.14032 113.486 7.14032 113.489 7.14032 113.493C7.14032 113.577 7.14385 113.666 7.15445 113.747C7.27804 115.011 8.34803 116 9.64402 116C9.68639 116 9.7323 115.997 9.77468 115.993H23.3314C23.3738 115.993 23.4161 116 23.462 116C24.8428 116 25.9657 114.881 25.9657 113.496V82.4445C25.9657 78.8848 23.0701 75.9891 19.5105 75.9891L19.507 75.9926ZM13.5956 80.9966H19.507C20.305 80.9966 20.9548 81.6464 20.9548 82.448V110.989H12.1442V82.448C12.1442 81.6499 12.7939 80.9966 13.592 80.9966H13.5956Z" fill="#0FB9B1"/>
<path d="M74.772 69.0851H68.8606C65.301 69.0851 62.4053 71.9809 62.4053 75.5406V113.5C62.4053 114.881 63.5248 116.004 64.909 116.004C64.9514 116.004 64.9973 116 65.0397 115.996H78.5964C78.6388 115.996 78.6811 116.004 78.727 116.004C80.1078 116.004 81.2307 114.884 81.2307 113.5V75.5406C81.2307 71.9809 78.3351 69.0851 74.7755 69.0851H74.772ZM68.8606 74.0892H74.772C75.5701 74.0892 66.5294 110.187 66.5294 110.989H76.2198C76.2198 110.191 75.4217 74.0892 76.2198 74.0892H68.8606Z" fill="#0FB9B1"/>
<path d="M47.2974 55.4412H41.405C37.8569 55.4412 34.9706 59.1789 34.9706 63.7734V112.768C34.9706 114.551 36.0864 116 37.4662 116C37.5084 116 37.5542 115.995 37.5964 115.991H51.1094C51.1517 115.991 51.1939 116 51.2397 116C52.616 116 53.7353 114.555 53.7353 112.768V63.7734C53.7353 59.1789 50.849 55.4412 47.3009 55.4412H47.2974ZM41.405 61.9H47.2974C48.0929 61.9 39.0814 108.493 39.0814 109.528H48.7405C48.7405 108.497 47.945 61.9 48.7405 61.9H41.405Z" fill="#0FB9B1"/>
<path d="M19.1503 75.9118H13.258C9.70988 75.9118 6.82355 78.386 6.82355 81.4275V113.861C6.82355 115.041 7.93936 116 9.31917 116C9.36141 116 9.40717 115.997 9.44941 115.994H22.9624C23.0046 115.994 23.0469 116 23.0926 116C24.4689 116 25.5883 115.044 25.5883 113.861V81.4275C25.5883 78.386 22.7019 75.9118 19.1538 75.9118H19.1503ZM13.258 80.1874H19.1503C19.9458 80.1874 10.9343 111.031 10.9343 111.715H20.5935C20.5935 111.034 19.798 80.1874 20.5935 80.1874H13.258Z" fill="#0FB9B1"/>
<path d="M101.618 45.2059H96.2612C93.0357 45.2059 90.4117 49.5753 90.4117 54.9464V112.222C90.4117 114.306 91.4261 116 92.6805 116C92.7189 116 92.7605 115.995 92.7989 115.989H105.083C105.122 115.989 105.16 116 105.202 116C106.453 116 107.471 114.311 107.471 112.222V54.9464C107.471 49.5753 104.847 45.2059 101.621 45.2059H101.618ZM96.2612 52.7564H101.618C102.341 52.7564 94.1488 107.224 94.1488 108.434H102.93C102.93 107.229 102.207 52.7564 102.93 52.7564H96.2612Z" fill="#0FB9B1"/>
<path d="M47.1395 55.2667H41.2281C37.6685 55.2667 34.7728 58.1625 34.7728 61.7222V113.5C34.7728 114.881 35.8923 116.004 37.2765 116.004C37.3189 116.004 37.3648 116 37.4072 115.997H50.9639C51.0063 115.997 51.0486 116.004 51.0945 116.004C52.4753 116.004 53.5982 114.884 53.5982 113.5V61.7222C53.5982 58.1625 50.7026 55.2667 47.143 55.2667H47.1395ZM41.2281 60.2707H47.1395C47.9376 60.2707 48.5873 60.9205 48.5873 61.7222V110.989H39.7767V61.7222C39.7767 60.9241 40.4265 60.2707 41.2281 60.2707Z" fill="#0FB9B1"/>
<path d="M102.404 41.4518H96.4931C92.9335 41.4518 90.0378 44.3475 90.0378 47.9072V113.5C90.0378 114.881 91.1573 116.004 92.5415 116.004C92.5839 116.004 92.6298 116 92.6722 115.996H106.229C106.271 115.996 106.314 116.004 106.36 116.004C107.74 116.004 108.863 114.884 108.863 113.5V47.9072C108.863 44.3475 105.968 41.4518 102.408 41.4518H102.404ZM96.4931 46.4558H102.404C103.203 46.4558 103.852 47.1056 103.852 47.9072V110.992H95.0417V47.9072C95.0417 47.1091 95.6915 46.4558 96.4895 46.4558H96.4931Z" fill="#0FB9B1"/>
<path d="M115.997 2.43352C115.997 2.39114 115.997 2.34877 115.99 2.30639C115.99 2.26401 115.982 2.22164 115.975 2.17926C115.972 2.14041 115.965 2.1051 115.958 2.06625C115.951 2.02035 115.94 1.97797 115.93 1.93559C115.922 1.90028 115.912 1.86496 115.901 1.82965C115.891 1.78727 115.877 1.74136 115.862 1.69899C115.852 1.66367 115.838 1.62836 115.824 1.59658C115.809 1.55773 115.792 1.51535 115.774 1.47651C115.756 1.44119 115.739 1.40588 115.721 1.37056C115.704 1.33525 115.686 1.29994 115.665 1.26462C115.643 1.22931 115.622 1.19399 115.601 1.15868C115.58 1.1269 115.559 1.09158 115.534 1.0598C115.509 1.02449 115.485 0.992703 115.46 0.96092C115.435 0.929138 115.407 0.897355 115.382 0.865572C115.357 0.837321 115.329 0.805538 115.301 0.777287C115.269 0.745504 115.237 0.713721 115.206 0.681938C115.191 0.667813 115.177 0.650156 115.16 0.63603C115.149 0.625436 115.135 0.618373 115.124 0.607779C115.089 0.579527 115.054 0.551276 115.018 0.523025C114.987 0.498305 114.958 0.477116 114.927 0.455928C114.891 0.431208 114.856 0.410019 114.821 0.385299C114.785 0.364111 114.754 0.342922 114.718 0.321734C114.683 0.300545 114.648 0.282888 114.612 0.265231C114.573 0.247574 114.538 0.226386 114.499 0.21226C114.464 0.194603 114.425 0.184009 114.39 0.169883C114.351 0.155757 114.312 0.1381 114.273 0.127506C114.234 0.116912 114.199 0.106317 114.16 0.0957231C114.118 0.0851289 114.079 0.0745346 114.037 0.0639403C113.998 0.0568775 113.959 0.0498147 113.924 0.0427518C113.881 0.035689 113.839 0.0286262 113.793 0.0215633C113.758 0.0180319 113.719 0.0145005 113.68 0.0109691C113.634 0.0109691 113.588 0.00390625 113.542 0.00390625C113.528 0.00390625 113.511 0.00390625 113.496 0.00390625H98.0681C96.6874 0.00390625 95.5644 1.12337 95.5644 2.50768C95.5644 3.892 96.6839 5.01146 98.0681 5.01146H107.903L71.6151 45.6086L45.8471 22.6756C44.9361 21.8669 43.5765 21.8281 42.623 22.5873L0.94299 55.8144C-0.137591 56.6761 -0.314157 58.2511 0.547483 59.3317C1.04187 59.9497 1.76932 60.2746 2.50736 60.2746C3.05471 60.2746 3.6056 60.0945 4.06467 59.7272L44.0956 27.8103L70.1531 51.0046C71.1843 51.9228 72.7628 51.831 73.6809 50.8033L110.993 9.05846V17.4279C110.993 18.8087 112.112 19.9317 113.496 19.9317C114.881 19.9317 116 18.8122 116 17.4279V2.50415C116 2.47943 116 2.45824 115.997 2.43352Z" fill="#13D8CA"/>
</g>
<defs>
<clipPath id="clip0_118_18">
<rect width="116" height="116" fill="white"/>
</clipPath>
</defs>
</svg>
