<?xml version="1.0" encoding="UTF-8"?>
<svg id="Camada_2" data-name="Camada 2" xmlns="http://www.w3.org/2000/svg" viewBox="0 0 328.49 328.48">
  <defs>
    <style>
      .cls-1 {
        fill: #0fb9b1;
      }

      .cls-2 {
        fill: #231f20;
      }
    </style>
  </defs>
  <g id="Layer_1" data-name="Layer 1">
    <g>
      <path class="cls-2" d="m55.24,215.19h-16.74c-10.08,0-18.28,8.2-18.28,18.28v87.89s0,.01,0,.02c0,.24.01.49.04.72.35,3.58,3.38,6.38,7.05,6.38.12,0,.25-.01.37-.02h38.39c.12,0,.24.02.37.02,3.91,0,7.09-3.17,7.09-7.09v-87.93c0-10.08-8.2-18.28-18.28-18.28Zm-16.74,14.17h16.74c2.26,0,4.1,1.84,4.1,4.11v80.82h-24.95v-80.82c0-2.26,1.84-4.11,4.1-4.11Z"/>
      <path class="cls-2" d="m211.74,195.63h-16.74c-10.08,0-18.28,8.2-18.28,18.28v107.49c0,3.91,3.17,7.09,7.09,7.09.12,0,.25-.01.37-.02h38.39c.12,0,.24.02.37.02,3.91,0,7.09-3.17,7.09-7.09v-107.49c0-10.08-8.2-18.28-18.28-18.28Zm-16.74,14.17h16.74c2.26,0,4.1,1.84,4.1,4.11v100.38h-24.95v-100.38c0-2.26,1.84-4.11,4.1-4.11Z"/>
      <path class="cls-2" d="m133.49,156.5h-16.74c-10.08,0-18.28,8.2-18.28,18.28v146.62c0,3.91,3.17,7.09,7.09,7.09.12,0,.25-.01.37-.02h38.39c.12,0,.24.02.37.02,3.91,0,7.09-3.17,7.09-7.09v-146.62c0-10.08-8.2-18.28-18.28-18.28Zm-16.74,14.17h16.74c2.26,0,4.1,1.84,4.1,4.11v139.51h-24.95v-139.51c0-2.26,1.84-4.11,4.11-4.11Z"/>
      <path class="cls-2" d="m289.99,117.38h-16.74c-10.08,0-18.28,8.2-18.28,18.28v185.74c0,3.91,3.17,7.09,7.09,7.09.12,0,.25-.01.37-.02h38.39c.12,0,.24.02.37.02,3.91,0,7.09-3.17,7.09-7.09v-185.74c0-10.08-8.2-18.28-18.28-18.28Zm-16.74,14.17h16.74c2.26,0,4.1,1.84,4.1,4.11v178.64h-24.95v-178.64c0-2.26,1.84-4.11,4.1-4.11Z"/>
      <path class="cls-1" d="m328.48,6.89c0-.12,0-.24-.02-.36,0-.12-.02-.24-.04-.36-.01-.11-.03-.21-.05-.32-.02-.13-.05-.25-.08-.37-.02-.1-.05-.2-.08-.3-.03-.12-.07-.25-.11-.37-.03-.1-.07-.2-.11-.29-.04-.11-.09-.23-.14-.34-.05-.1-.1-.2-.15-.3-.05-.1-.1-.2-.16-.3-.06-.1-.12-.2-.18-.3-.06-.09-.12-.19-.19-.28-.07-.1-.14-.19-.21-.28-.07-.09-.15-.18-.22-.27-.07-.08-.15-.17-.23-.25-.09-.09-.18-.18-.27-.27-.04-.04-.08-.09-.13-.13-.03-.03-.07-.05-.1-.08-.1-.08-.2-.16-.3-.24-.09-.07-.17-.13-.26-.19-.1-.07-.2-.13-.3-.2-.1-.06-.19-.12-.29-.18-.1-.06-.2-.11-.3-.16-.11-.05-.21-.11-.32-.15-.1-.05-.21-.08-.31-.12-.11-.04-.22-.09-.33-.12-.11-.03-.21-.06-.32-.09-.12-.03-.23-.06-.35-.09-.11-.02-.22-.04-.32-.06-.12-.02-.24-.04-.37-.06-.1-.01-.21-.02-.32-.03-.13,0-.26-.02-.39-.02-.04,0-.09,0-.13,0h-43.69c-3.91,0-7.09,3.17-7.09,7.09s3.17,7.09,7.09,7.09h27.85l-102.76,114.96-72.97-64.94c-2.58-2.29-6.43-2.4-9.13-.25L2.67,158.05c-3.06,2.44-3.56,6.9-1.12,9.96,1.4,1.75,3.46,2.67,5.55,2.67,1.55,0,3.11-.51,4.41-1.55l113.36-90.38,73.79,65.68c2.92,2.6,7.39,2.34,9.99-.57l105.66-118.21v23.7c0,3.91,3.17,7.09,7.09,7.09s7.09-3.17,7.09-7.09V7.09c0-.07,0-.13-.01-.2Z"/>
    </g>
  </g>
</svg>