<?xml version="1.0" encoding="UTF-8"?>
<svg id="Camada_2" data-name="Camada 2" xmlns="http://www.w3.org/2000/svg" viewBox="0 0 231 236">
  <defs>
    <style>
      .cls-1 {
        fill: #2bcbba;
      }

      .cls-2 {
        fill: #0fb9b1;
      }
    </style>
  </defs>
  <g id="Camada_1-2" data-name="Camada 1">
    <g>
      <path class="cls-1" d="m209.15,178.9c-15.89-4.19-100.42-24.07-188.21,1.63-1.48.43-2.12,2.16-1.29,3.46,6.99,10.85,37.08,52.01,91.54,52.01,67.25,0,93.72-42.83,99.41-53.82.68-1.31-.02-2.9-1.44-3.28Z"/>
      <g>
        <path class="cls-2" d="m77.46,66.83L96.58,4.15c.4-1.3-.72-2.59-2.06-2.34C58.88,8.35,28.98,31.25,12.86,62.43c9.6,1.03,33.11,3.28,64.6,4.4Z"/>
        <path class="cls-2" d="m9.2,70.16C3.28,84.05,0,99.34,0,115.39c0,19.6,4.9,38.05,13.52,54.22,1.34,2.51,4.24,3.72,6.97,2.94,8.58-2.45,17.12-4.46,25.58-6.13.66-.13,1.19-.61,1.39-1.25l27.34-89.6c-31.07-1.37-54.67-4.01-65.59-5.41Z"/>
      </g>
      <g>
        <path class="cls-2" d="m85.69,75.99l-26.9,88.18c18.53-2.92,36.47-4.21,53.2-4.41v-83.31c-9.16-.02-17.95-.19-26.3-.46Z"/>
        <path class="cls-2" d="m111.99,67.48V.89c0-.5-.41-.9-.92-.89l-.97.03c-.76.02-1.41.54-1.63,1.26l-20.1,65.87c7.52.19,15.41.31,23.61.32Z"/>
        <path class="cls-2" d="m122.99,67.48V.89c0-.5.41-.9.92-.89l.97.03c.76.02,1.41.54,1.63,1.26l20.1,65.87c-7.52.19-15.41.31-23.61.32Z"/>
      </g>
      <path class="cls-2" d="m148.07,75.77c-8.69.35-17.19.56-25.44.64v83.36c19.28.28,36.65,1.89,51.09,3.88l-25.65-87.87Z"/>
      <g>
        <path class="cls-2" d="m156.37,66.58c19.76-.87,40.41-2.44,61.24-4.99-15.65-29.48-43.71-51.51-77.06-58.95-1.37-.31-2.56,1-2.17,2.34l17.98,61.59Z"/>
        <path class="cls-2" d="m230.86,109.48c-.71-14.27-4.08-27.88-9.58-40.36-21.21,3.1-42.23,5.04-62.37,6.14l26.09,89.37c.13.46.53.81,1.01.89,11.4,1.92,20.12,3.9,25.36,5.21,2.89.72,5.91-.64,7.26-3.3,8.74-17.27,13.29-37.03,12.24-57.94Z"/>
      </g>
    </g>
  </g>
</svg>