<?xml version="1.0" encoding="UTF-8"?>
<svg id="Camada_2" data-name="Camada 2" xmlns="http://www.w3.org/2000/svg" viewBox="0 0 547.92 128.68">
  <defs>
    <style>
      .cls-1 {
        fill: #2bcbba;
      }

      .cls-2 {
        fill: #0fb9b1;
      }
    </style>
  </defs>
  <g id="Camada_1-2" data-name="Camada 1">
    <g>
      <g>
        <path class="cls-1" d="m112.94,96.61c-8.58-2.26-54.23-13-101.64.88-.8.23-1.15,1.17-.7,1.87,3.77,5.86,20.03,28.08,49.43,28.08,36.32,0,50.61-23.13,53.68-29.06.37-.71,0-1.57-.78-1.77Z"/>
        <g>
          <path class="cls-2" d="m41.83,36.09L52.15,2.24c.21-.7-.39-1.4-1.11-1.27C31.8,4.51,15.65,16.88,6.94,33.71c5.18.56,17.88,1.77,34.89,2.38Z"/>
          <path class="cls-2" d="m4.97,37.89C1.77,45.39,0,53.64,0,62.31c0,10.59,2.65,20.55,7.3,29.28.72,1.35,2.29,2.01,3.76,1.59,4.63-1.32,9.25-2.41,13.81-3.31.36-.07.64-.33.75-.68l14.76-48.38c-16.78-.74-29.52-2.17-35.42-2.92Z"/>
        </g>
        <g>
          <path class="cls-2" d="m46.27,41.03l-14.53,47.62c10.01-1.58,19.69-2.27,28.73-2.38v-44.99c-4.94-.01-9.69-.1-14.2-.25Z"/>
          <path class="cls-2" d="m60.47,36.44V.48c0-.27-.22-.49-.49-.48l-.52.02c-.41.01-.76.29-.88.68l-10.85,35.57c4.06.1,8.32.16,12.75.17Z"/>
          <path class="cls-2" d="m66.42,36.44V.48c0-.27.22-.49.49-.48l.52.02c.41.01.76.29.88.68l10.85,35.57c-4.06.1-8.32.16-12.75.17Z"/>
        </g>
        <path class="cls-2" d="m79.96,40.92c-4.69.19-9.28.3-13.74.34v45.02c10.41.15,19.79,1.02,27.59,2.09l-13.85-47.45Z"/>
        <g>
          <path class="cls-2" d="m84.44,35.95c10.67-.47,21.82-1.32,33.07-2.69-8.45-15.92-23.61-27.82-41.61-31.83-.74-.16-1.38.54-1.17,1.26l9.71,33.26Z"/>
          <path class="cls-2" d="m124.67,59.12c-.39-7.71-2.2-15.06-5.18-21.8-11.46,1.68-22.81,2.72-33.68,3.31l14.09,48.26c.07.25.29.44.54.48,6.16,1.04,10.87,2.11,13.7,2.81,1.56.39,3.19-.35,3.92-1.78,4.72-9.33,7.18-19.99,6.61-31.29Z"/>
        </g>
      </g>
      <g>
        <g>
          <path class="cls-2" d="m191.53,27.24c4.27-2.69,6.43-6.63,6.43-11.76,0-4.72-1.56-8.46-4.63-11.11-3.03-2.61-7.35-3.93-12.84-3.93h-28.73v58.41h27.31c6.73,0,12.02-1.47,15.71-4.37,3.78-2.96,5.7-7.14,5.7-12.4,0-4.04-.97-7.47-2.88-10.2-1.49-2.12-3.52-3.68-6.07-4.65Zm-27.73-16.56h15.26c4.67,0,6.84,2.07,6.84,6.53,0,2.25-.65,3.89-1.97,5.02-1.38,1.17-3.02,1.74-5.03,1.74h-15.11v-13.29Zm22.5,35.91c-1.46,1.36-3.41,2.02-5.97,2.02h-16.52v-15.34h16.52c2.45,0,4.44.64,5.93,1.9,1.46,1.23,2.17,3.08,2.17,5.65s-.7,4.42-2.13,5.76Z"/>
          <path class="cls-2" d="m253.85,43.11c0-3.67-.78-6.68-2.31-8.96-1.03-1.53-2.39-2.66-4.04-3.38,4.85-2.64,7.3-7.35,7.3-14.03,0-5.36-1.76-9.48-5.22-12.24-3.39-2.69-8.12-4.06-14.07-4.06h-28.34v58.41h12.05v-23.14h13.69c1.76,0,3.29.21,4.54.61,1.17.38,2.1,1.03,2.87,1.97.78.96,1.37,2.33,1.75,4.07.4,1.83.6,4.2.6,7.04,0,4.48.56,7.42,1.71,9l.33.45h13.53l-1.58-1.83c-1.86-2.14-2.8-6.82-2.8-13.92Zm-19.37-17.08h-15.26v-15.34h15.19c3.01,0,5.18.59,6.46,1.76,1.25,1.14,1.88,3.06,1.88,5.72,0,5.37-2.63,7.87-8.26,7.87Z"/>
          <path class="cls-2" d="m302.35,27.24c4.27-2.69,6.43-6.63,6.43-11.76,0-4.72-1.56-8.46-4.63-11.11-3.03-2.61-7.35-3.93-12.84-3.93h-28.73v58.41h27.31c6.73,0,12.02-1.47,15.71-4.37,3.78-2.96,5.7-7.14,5.7-12.4,0-4.04-.97-7.47-2.88-10.2-1.49-2.12-3.52-3.68-6.07-4.65Zm-27.73-16.56h15.26c4.67,0,6.84,2.07,6.84,6.53,0,2.25-.64,3.89-1.97,5.02-1.38,1.17-3.02,1.74-5.03,1.74h-15.11v-13.29Zm22.5,35.91c-1.46,1.36-3.41,2.02-5.97,2.02h-16.52v-15.34h16.52c2.45,0,4.44.64,5.93,1.9,1.46,1.23,2.17,3.08,2.17,5.65s-.7,4.42-2.13,5.76Z"/>
        </g>
        <g>
          <path class="cls-2" d="m163.78,80.63l-18.03,46.97h10.09l4.24-11.96h16.78l4.24,11.96h10.41l-18.09-46.97h-9.64Zm-.92,27.22l5.67-16.12,5.62,16.12h-11.29Z"/>
          <path class="cls-2" d="m226.7,105.65c-.88-1.08-1.94-2.03-3.15-2.81-1.21-.79-2.57-1.39-4.05-1.79l-12.09-3.16c-3.43-.9-5.1-2.57-5.1-5.09,0-1.59.63-2.78,1.94-3.62,1.41-.91,3.24-1.38,5.47-1.38,5.51,0,8.4,2.32,8.86,7.09v.89h9.69v-.89c0-2.28-.45-4.38-1.35-6.27-.89-1.88-2.17-3.51-3.78-4.86-1.6-1.33-3.54-2.38-5.77-3.1-2.21-.72-4.68-1.09-7.33-1.09-2.48,0-4.81.33-6.91.99-2.12.66-3.97,1.61-5.5,2.81-1.55,1.22-2.79,2.72-3.67,4.48-.88,1.76-1.33,3.75-1.33,5.9,0,6.42,3.78,10.63,11.24,12.51,3.45.88,6.26,1.62,8.4,2.21,2.12.58,3.61,1.02,4.44,1.31,2.14.72,3.13,2.23,3.13,4.73,0,1.75-.7,3.13-2.15,4.23-1.5,1.14-3.69,1.72-6.52,1.72-3.24,0-5.85-.74-7.75-2.19-1.86-1.42-2.78-3.58-2.82-6.62v-.88h-9.7v.9c.06,2.64.56,5.05,1.52,7.16.96,2.11,2.31,3.93,4.03,5.4,1.71,1.47,3.81,2.59,6.23,3.34,2.4.74,5.08,1.12,7.98,1.12s5.47-.35,7.76-1.05c2.31-.7,4.31-1.73,5.93-3.04,1.64-1.32,2.92-2.92,3.82-4.76.9-1.84,1.36-3.93,1.36-6.21,0-1.49-.25-2.93-.75-4.29-.49-1.35-1.19-2.59-2.08-3.67Z"/>
          <path class="cls-2" d="m267.71,105.65c-.88-1.08-1.94-2.03-3.15-2.81-1.21-.79-2.57-1.39-4.05-1.79l-12.09-3.16c-3.43-.9-5.1-2.57-5.1-5.09,0-1.59.63-2.78,1.94-3.62,1.41-.91,3.24-1.38,5.47-1.38,5.51,0,8.4,2.32,8.86,7.09v.89h9.69v-.89c0-2.28-.45-4.38-1.35-6.27-.89-1.88-2.17-3.51-3.78-4.86-1.6-1.33-3.54-2.38-5.77-3.1-2.21-.72-4.68-1.09-7.33-1.09-2.48,0-4.81.33-6.91.99-2.12.66-3.97,1.61-5.5,2.81-1.55,1.22-2.79,2.72-3.67,4.48-.88,1.76-1.33,3.75-1.33,5.9,0,6.42,3.78,10.63,11.24,12.51,3.45.88,6.26,1.62,8.4,2.21,2.12.58,3.61,1.02,4.44,1.31,2.14.72,3.13,2.23,3.13,4.73,0,1.75-.7,3.13-2.15,4.23-1.5,1.14-3.69,1.72-6.52,1.72-3.24,0-5.85-.74-7.75-2.19-1.86-1.42-2.78-3.58-2.82-6.62v-.88h-9.7v.9c.06,2.64.56,5.05,1.52,7.16.96,2.11,2.31,3.93,4.03,5.4,1.71,1.47,3.81,2.59,6.23,3.34,2.4.74,5.08,1.12,7.98,1.12s5.47-.35,7.76-1.05c2.31-.7,4.31-1.73,5.93-3.04,1.64-1.32,2.92-2.92,3.82-4.76.9-1.84,1.36-3.93,1.36-6.21,0-1.49-.25-2.93-.75-4.29-.49-1.35-1.19-2.59-2.08-3.67Z"/>
          <polygon class="cls-2" points="285.35 107.54 308.14 107.54 308.14 99.3 285.35 99.3 285.35 89.25 309.97 89.25 309.97 80.63 275.66 80.63 275.66 127.6 310.42 127.6 310.42 118.99 285.35 118.99 285.35 107.54"/>
          <path class="cls-2" d="m348.6,105.65c-.88-1.08-1.94-2.03-3.15-2.81-1.21-.79-2.57-1.39-4.05-1.79l-12.09-3.16c-3.43-.9-5.1-2.57-5.1-5.09,0-1.59.63-2.78,1.94-3.62,1.41-.91,3.24-1.38,5.47-1.38,5.51,0,8.4,2.32,8.86,7.09v.89h9.69v-.89c0-2.28-.45-4.38-1.35-6.27-.89-1.88-2.17-3.51-3.78-4.86-1.6-1.33-3.54-2.38-5.77-3.1-2.21-.72-4.68-1.09-7.33-1.09-2.48,0-4.81.33-6.91.99-2.12.66-3.97,1.61-5.5,2.81-1.55,1.22-2.79,2.72-3.67,4.48-.88,1.76-1.33,3.75-1.33,5.9,0,6.42,3.78,10.63,11.24,12.51,3.45.88,6.26,1.62,8.4,2.21,2.12.58,3.61,1.02,4.44,1.31,2.14.72,3.13,2.23,3.13,4.73,0,1.75-.7,3.13-2.15,4.23-1.5,1.14-3.69,1.72-6.52,1.72-3.24,0-5.85-.74-7.75-2.19-1.86-1.42-2.78-3.58-2.82-6.62v-.88h-9.7v.9c.06,2.64.56,5.05,1.52,7.16.96,2.11,2.31,3.93,4.03,5.4,1.71,1.47,3.81,2.59,6.23,3.34,2.4.74,5.08,1.12,7.98,1.12s5.47-.35,7.76-1.05c2.31-.7,4.31-1.73,5.93-3.04,1.64-1.32,2.92-2.92,3.82-4.76.9-1.84,1.36-3.93,1.36-6.21,0-1.49-.25-2.93-.75-4.29-.49-1.35-1.19-2.59-2.08-3.67Z"/>
          <path class="cls-2" d="m389.62,105.65c-.88-1.08-1.94-2.03-3.15-2.81-1.21-.79-2.57-1.39-4.05-1.79l-12.09-3.16c-3.43-.9-5.1-2.57-5.1-5.09,0-1.59.63-2.78,1.94-3.62,1.41-.91,3.24-1.38,5.47-1.38,5.51,0,8.4,2.32,8.86,7.09v.89h9.69v-.89c0-2.28-.45-4.38-1.35-6.27-.89-1.88-2.17-3.51-3.78-4.86-1.6-1.33-3.54-2.38-5.77-3.1-2.21-.72-4.68-1.09-7.33-1.09-2.48,0-4.81.33-6.91.99-2.12.66-3.97,1.61-5.5,2.81-1.55,1.22-2.79,2.72-3.67,4.48-.88,1.76-1.33,3.75-1.33,5.9,0,6.42,3.78,10.63,11.24,12.51,3.45.88,6.26,1.62,8.4,2.21,2.12.58,3.61,1.02,4.44,1.31,2.14.72,3.13,2.23,3.13,4.73,0,1.75-.7,3.13-2.15,4.23-1.5,1.14-3.69,1.72-6.52,1.72-3.24,0-5.85-.74-7.75-2.19-1.86-1.42-2.78-3.58-2.82-6.62v-.88h-9.7v.9c.06,2.64.56,5.05,1.52,7.16.96,2.11,2.31,3.93,4.03,5.4,1.71,1.47,3.81,2.59,6.23,3.34,2.4.74,5.08,1.12,7.98,1.12s5.47-.35,7.76-1.05c2.31-.7,4.31-1.73,5.93-3.04,1.64-1.32,2.92-2.92,3.82-4.76.9-1.84,1.36-3.93,1.36-6.21,0-1.49-.25-2.93-.75-4.29-.49-1.35-1.19-2.59-2.08-3.67Z"/>
          <path class="cls-2" d="m433.95,86.52c-2-2.17-4.4-3.89-7.16-5.12-2.76-1.23-5.82-1.85-9.1-1.85s-6.33.62-9.1,1.85c-2.76,1.23-5.17,2.96-7.16,5.15-1.99,2.19-3.55,4.81-4.64,7.79-1.09,2.97-1.64,6.26-1.64,9.77s.55,6.79,1.64,9.77c1.09,2.98,2.64,5.6,4.6,7.79,1.97,2.19,4.37,3.93,7.14,5.15,2.76,1.23,5.84,1.85,9.16,1.85s6.33-.62,9.1-1.85c2.75-1.22,5.16-2.94,7.16-5.12,1.99-2.17,3.55-4.79,4.64-7.8,1.09-3,1.64-6.29,1.64-9.8s-.55-6.8-1.64-9.8c-1.09-3.01-2.65-5.63-4.64-7.8Zm-4.32,24.4c-.6,2.01-1.47,3.74-2.59,5.14-1.11,1.39-2.47,2.48-4.03,3.24-1.56.76-3.34,1.14-5.31,1.14s-3.81-.39-5.36-1.17c-1.56-.78-2.9-1.89-4-3.3-1.11-1.42-1.97-3.16-2.57-5.15-.6-2.02-.91-4.28-.91-6.71s.31-4.75.91-6.77c.6-2,1.47-3.73,2.57-5.15,1.09-1.4,2.43-2.5,3.99-3.26s3.34-1.14,5.31-1.14,3.75.38,5.31,1.14c1.56.76,2.92,1.85,4.03,3.24,1.13,1.4,2.01,3.12,2.63,5.12.63,2.01.94,4.31.94,6.83s-.31,4.77-.91,6.8Z"/>
          <path class="cls-2" d="m483.21,114.94c0-2.95-.63-5.38-1.86-7.21-.83-1.23-1.92-2.14-3.25-2.72,3.9-2.12,5.87-5.91,5.87-11.28,0-4.31-1.41-7.63-4.2-9.84-2.73-2.17-6.53-3.26-11.31-3.26h-22.79v46.97h9.69v-18.61h11.01c1.42,0,2.64.17,3.65.49.94.31,1.69.82,2.31,1.58.63.77,1.1,1.87,1.41,3.27.32,1.47.48,3.38.48,5.66,0,3.6.45,5.97,1.38,7.23l.27.36h10.88l-1.27-1.47c-1.49-1.72-2.25-5.49-2.25-11.19Zm-15.57-13.74h-12.27v-12.34h12.21c2.42,0,4.17.48,5.19,1.41,1.01.92,1.51,2.46,1.51,4.6,0,4.32-2.11,6.33-6.64,6.33Z"/>
          <rect class="cls-2" x="490.23" y="80.63" width="9.69" height="46.97"/>
          <path class="cls-2" d="m529.83,80.63h-9.64l-18.03,46.97h10.09l4.24-11.96h16.78l4.24,11.96h10.41l-18.09-46.97Zm-10.56,27.22l5.67-16.12,5.62,16.12h-11.29Z"/>
        </g>
      </g>
    </g>
  </g>
</svg>