<?xml version="1.0" encoding="utf-8"?>
<!-- Generator: Adobe Illustrator 27.4.1, SVG Export Plug-In . SVG Version: 6.00 Build 0)  -->
<svg version="1.1" id="Camada_2_00000079479115073676992270000012124459699498662060_"
	 xmlns="http://www.w3.org/2000/svg" xmlns:xlink="http://www.w3.org/1999/xlink" x="0px" y="0px" viewBox="0 0 2149 1778.1"
	 style="enable-background:new 0 0 2149 1778.1;" xml:space="preserve">
<style type="text/css">
	.st0{fill:#0FB9B1;}
	.st1{fill:#13D8CA;}
	.st2{fill:#231F20;}
</style>
<g id="_Ñëîé_1">
	<g>
		<g>
			<path class="st0" d="M1450.3,1134.8l178.6,178.6l-42.4,42.4c-6.8,6.8-10.6,16-10.6,25.6s3.8,18.8,10.6,25.6l338.7,338.7
				c20.9,20.9,48.8,32.4,78.3,32.4s57.4-11.5,78.3-32.4l34.7-34.7c20.9-20.9,32.4-48.8,32.4-78.3s-11.5-57.4-32.4-78.3l-338.7-338.7
				c-14.1-14.1-37-14.1-51.2,0l-46.7,46.7l-178.6-178.6"/>
		</g>
		<g>
			<path class="st1" d="M1961.4,140.2c0-0.7,0-1.4-0.1-2c-0.1-0.7-0.1-1.4-0.2-2.1c-0.1-0.6-0.2-1.2-0.3-1.8
				c-0.1-0.7-0.3-1.4-0.4-2.1c-0.1-0.6-0.3-1.1-0.4-1.7c-0.2-0.7-0.4-1.4-0.6-2.1c-0.2-0.6-0.4-1.1-0.6-1.7
				c-0.3-0.7-0.5-1.3-0.8-1.9c-0.3-0.6-0.5-1.2-0.8-1.7c-0.3-0.6-0.6-1.2-0.9-1.7c-0.3-0.6-0.7-1.2-1.1-1.7
				c-0.3-0.5-0.7-1.1-1.1-1.6c-0.4-0.6-0.8-1.1-1.2-1.6c-0.4-0.5-0.8-1-1.3-1.5c-0.4-0.5-0.8-1-1.3-1.4c-0.5-0.5-1-1-1.6-1.5
				c-0.3-0.2-0.5-0.5-0.7-0.7c-0.2-0.2-0.4-0.3-0.6-0.5c-0.6-0.5-1.1-0.9-1.7-1.4c-0.5-0.4-1-0.8-1.5-1.1c-0.6-0.4-1.1-0.8-1.7-1.1
				c-0.6-0.3-1.1-0.7-1.7-1c-0.6-0.3-1.2-0.6-1.7-0.9c-0.6-0.3-1.2-0.6-1.8-0.9c-0.6-0.3-1.2-0.5-1.8-0.7c-0.6-0.2-1.3-0.5-1.9-0.7
				c-0.6-0.2-1.2-0.4-1.8-0.5c-0.7-0.2-1.3-0.4-2-0.5c-0.6-0.1-1.2-0.2-1.8-0.3c-0.7-0.1-1.4-0.2-2.1-0.3c-0.6-0.1-1.2-0.1-1.8-0.2
				c-0.7-0.1-1.5-0.1-2.2-0.1c-0.3,0-0.5,0-0.8,0h-250c-22.4,0-40.6,18.2-40.6,40.6s18.2,40.6,40.6,40.6h159.4l-588,657.9
				L824.7,468.1c-14.7-13.1-36.8-13.7-52.2-1.4L97,1005.2c-17.5,14-20.4,39.5-6.4,57c8,10,19.8,15.3,31.7,15.3
				c8.9,0,17.8-2.9,25.3-8.9l648.7-517.2l422.3,375.8c16.7,14.9,42.3,13.4,57.2-3.3l609.3-699.4l-4.7,158.6
				c0,22.4,18.2,40.6,40.6,40.6s40.6-18.2,40.6-40.6V141.3C1961.5,140.9,1961.4,140.6,1961.4,140.2L1961.4,140.2z"/>
		</g>
		<g>
			<g>
				<path class="st0" d="M1032.9,1332.7c-89.9,0-177.2-17.6-259.4-52.4c-79.3-33.6-150.6-81.6-211.8-142.8s-109.2-132.4-142.8-211.8
					c-34.8-82.2-52.4-169.5-52.4-259.4s17.6-177.2,52.4-259.4c33.6-79.4,81.6-150.6,142.8-211.8C622.9,134,694.1,85.9,773.5,52.4
					C855.7,17.6,942.9,0,1032.9,0s177.2,17.6,259.4,52.4c79.3,33.6,150.6,81.6,211.8,142.8c61.2,61.2,109.2,132.4,142.8,211.8
					c34.8,82.2,52.4,169.4,52.4,259.4s-17.6,177.2-52.4,259.4c-33.6,79.3-81.6,150.6-142.8,211.8
					c-61.2,61.2-132.4,109.2-211.8,142.8C1210.1,1315.1,1122.8,1332.7,1032.9,1332.7L1032.9,1332.7z M1032.9,72.4
					c-327.5,0-594,266.5-594,594s266.5,594,594,594s594-266.5,594-594S1360.4,72.4,1032.9,72.4L1032.9,72.4z"/>
			</g>
		</g>
		<g>
			<path class="st2" d="M75.2,1180.7c7.1,7.4,16.6,11.2,26.1,11.2"/>
		</g>
	</g>
</g>
<g>
	<path class="st0" d="M1168.4,436.4c-6.7,0-13.4-2.3-18.8-7.1c-11.7-10.4-12.8-28.3-2.4-40l148.5-167.7c10.4-11.7,28.3-12.8,40-2.4
		c11.7,10.4,12.8,28.3,2.4,40l-148.5,167.7C1184.1,433.2,1176.3,436.4,1168.4,436.4z"/>
</g>
<g>
	<path class="st0" d="M1263.7,531.7c-6.7,0-13.4-2.3-18.8-7.1c-11.7-10.4-12.8-28.3-2.4-40L1391,316.9c10.4-11.7,28.3-12.8,40-2.4
		c11.7,10.4,12.8,28.3,2.4,40l-148.5,167.7C1279.3,528.5,1271.5,531.7,1263.7,531.7z"/>
</g>
</svg>
