<?xml version="1.0" encoding="utf-8"?>
<!-- Generator: Adobe Illustrator 27.4.1, SVG Export Plug-In . SVG Version: 6.00 Build 0)  -->
<svg version="1.1" id="Camada_2_00000067954147181336560880000001364890616875730323_"
	 xmlns="http://www.w3.org/2000/svg" xmlns:xlink="http://www.w3.org/1999/xlink" x="0px" y="0px" viewBox="0 0 2742.5 2558"
	 style="enable-background:new 0 0 2742.5 2558;" xml:space="preserve">
<style type="text/css">
	.st0{fill:#0FB9B1;}
	.st1{fill:#0BD8C9;}
</style>
<g id="Layer_1">
	<g>
		<path class="st0" d="M1346.1,2393.3c-18.2-205.1-244.8-394.6-515.8-431.3l-11.1-1.5c-32.4-4.4-65.8-9-98.5-9.6
			c-53.5-1-101.8-20.1-143.7-56.8c-15.8-13.9-31.5-28.3-46.6-42.2c-29.6-27.2-60.1-55.3-93-80.4c-45.3-34.7-99.5-62.7-151.9-89.8
			c-6.3-3.2-12.5-6.5-18.8-9.7c-21-10.9-57.3-21.4-74.4-21.4c-10.9,0-21.2,2.1-31.4,6.4c-7.5,3.2-12.8,6.9-15.2,10.8
			c-3.8,5.8-1.4,12.9,0.2,16.6C167,1731.6,333.4,1906.4,355,1932c10.8,12.8,76.6,96.9,76.6,96.9s-99.1-90.4-132.1-124
			c-9.7-9.9-18.3-18.6-24.7-25.1c-41.2-41.6-82.5-85-126.1-132.7c-19-20.8-43.2-51.9-34.6-81.9c6.2-21.6,27.5-38.2,67.8-37.1
			c-16.4-106.3-34.3-214.2-48.7-295.5c-3.1-17.6-13.6-36.6-27.5-49.7c-9.7-9.2-28.5-19.2-42-19.2c-1.8,0-3.5,0.2-4.9,0.6
			c-14.1,3.8-21.2,12.4-23.6,28.9c-6.5,44.4-11.7,89.8-16.8,133.7c-4.5,39.2-9.1,79.7-14.7,119.5c-12.4,88.2,6.4,171.5,57.5,254.6
			c44.7,72.7,88.3,147.2,130.5,219.2c8.3,14.2,16.6,28.3,24.9,42.5c24.9,42.5,63.5,76.1,117.8,102.8c44.1,21.6,88,43.4,132,65.2
			c87.9,43.5,178.8,88.5,268.9,131.8c96.7,46.4,140.5,107.4,134.2,186.4c-0.1,1.5-0.2,5-0.3,9.1h480.9c0-76-0.2-80.9-4-162.6
			L1346.1,2393.3L1346.1,2393.3z"/>
		<path class="st0" d="M2738.8,1546.3c-5.6-39.8-10.2-80.3-14.7-119.5c-5-43.9-10.2-89.2-16.8-133.7c-2.4-16.5-9.5-25.1-23.6-28.9
			c-1.4-0.4-3.1-0.6-4.9-0.6c-13.4,0-32.2,10-41.9,19.2c-13.8,13.1-24.4,32.2-27.5,49.7c-14.4,81.3-32.2,189.3-48.7,295.5
			c40.3-1.1,61.6,15.5,67.8,37.1c8.6,30-15.7,61.1-34.6,81.9c-43.6,47.7-84.8,91.1-126.1,132.7c-6.4,6.5-15,15.2-24.7,25.1
			c-33,33.6-132.1,124-132.1,124s65.8-84.1,76.6-96.9c21.5-25.6,188-200.4,209.1-247.8c1.6-3.7,4-10.8,0.2-16.6
			c-2.5-3.9-7.8-7.6-15.2-10.8c-10.2-4.3-20.4-6.4-31.4-6.4c-17.1,0-53.4,10.4-74.4,21.4c-6.2,3.2-12.5,6.5-18.8,9.7
			c-52.4,27.1-106.5,55.2-151.9,89.8c-32.8,25.1-63.4,53.2-93,80.4c-15.1,13.9-30.8,28.3-46.6,42.2c-41.9,36.7-90.2,55.8-143.7,56.8
			c-32.7,0.6-66.2,5.2-98.6,9.6l-11.1,1.5c-271,36.8-497.6,226.2-515.8,431.4l-0.1,2.1c-3.8,81.7-4,86.7-4,162.6h480.9
			c-0.1-4.1-0.2-7.7-0.3-9.1c-6.3-79,37.6-140,134.2-186.4c90.1-43.3,181-88.3,268.9-131.8c44-21.8,87.9-43.5,132-65.2
			c54.3-26.7,92.9-60.3,117.8-102.8c8.3-14.1,16.6-28.3,24.9-42.5c42.2-72.1,85.9-146.6,130.5-219.2
			C2732.4,1717.8,2751.2,1634.5,2738.8,1546.3L2738.8,1546.3z"/>
		<path class="st1" d="M1528.7,2077.7c63.6-53.2,138.9-95.7,220.2-124.8c-21-32.9-60.5-55.1-105.7-55.1h-213.9v-254.9
			c0-27.4-13.9-51.5-35-65.8V496.8c0-63.9,40.6-121.3,101.4-140.9c1.1-0.4,2.2-0.7,3.4-1c160.2-47.7,395.5,121.5,398.7,123.8v0
			l104.3-0.1v89h52.3l-297.6,813.4c-0.2,0-0.3-0.1-0.4-0.1c-37.9-7.6-74.6-16.5-110-26.6c21.3,40.8,47.9,78.2,78.9,111.7
			c2.4,2.8,4.9,5.4,7.6,8c94.3,98.1,226.7,159,373.2,159s266.6-55.4,359.9-145.7c15-14.4,29.2-29.8,42.4-46.1
			c27.9-34.4,51.7-72.4,70.3-113.3c-33.6,12.2-68.7,23.1-105.2,32.9c-1.6,0.4-3.1,0.8-4.7,1.2l-344.1-794.5h55v-89.1l85.1-0.1v-61
			h-340.9c-54.4-37.1-273.2-175.4-443.2-125c-32.7,9.7-61.5,25.6-86.3,47.5v-64.2c34.5-16.1,58.4-51.1,58.4-91.8
			c0-55.9-101.2-184-101.2-184s-101.2,128.1-101.2,184c0,40.6,23.9,75.6,58.5,91.8v71.4c-26.5-25.6-57.9-43.8-94-54.5
			c-170-50.5-388.8,87.9-443.2,125.1H430.7v61l85.1,0.1v88.9h56.1l-297.6,813.4c-0.1,0-0.3-0.1-0.5-0.1
			c-37.9-7.6-74.6-16.5-110-26.6c21.3,40.8,47.9,78.2,78.9,111.7c2.4,2.8,4.9,5.4,7.6,8c94.3,98.1,226.7,159,373.2,159
			s266.6-55.4,359.9-145.7c15-14.4,29.2-29.8,42.4-46.1c27.9-34.4,51.7-72.4,70.3-113.3c-33.6,12.2-68.7,23.1-105.2,32.9
			c-1.5,0.4-3.1,0.8-4.7,1.2L642.2,567.7h51.1v-88.8l104.3,0.1c2.3-1.7,237.6-171.6,398.6-123.9c6.3,1.9,12.6,4,18.9,6.5
			c56.7,22,93.6,77.2,93.6,138v1075.4c-22.9,13.9-38.3,39.1-38.3,67.9v254.9h-171.2c-45.2,0-84.7,22.2-105.7,55.1
			c81.2,29.2,156.5,71.6,220.2,124.9c74.8,62.6,128.7,136,157.5,213.1C1400,2213.7,1453.9,2140.3,1528.7,2077.7L1528.7,2077.7z
			 M2106.4,616.7l326.2,754.4c-5.2,1.2-10.3,2.4-15.5,3.5c-92.6,20.6-192.7,33.2-297.5,36.2c-4.4,0.1-8.8,0.2-13.1,0.3V616.7
			L2106.4,616.7z M2069.5,1411.6c-2.4,0-4.9,0-7.3-0.1c-86.4-0.3-169.8-7.4-248.8-20.2c-6.8-1-13.4-2.2-20.1-3.3l276.2-771.3V1411.6
			L2069.5,1411.6z M587,1411.6c-2.4,0-4.9,0-7.3-0.1c-86.4-0.3-169.8-7.4-248.8-20.2c-6.8-1-13.5-2.2-20.1-3.3L587,616.7V1411.6
			L587,1411.6z M950.1,1371.1c-5.2,1.2-10.3,2.4-15.5,3.5c-92.6,20.6-192.7,33.2-297.5,36.2c-4.4,0.1-8.8,0.2-13.2,0.3V616.7
			L950.1,1371.1L950.1,1371.1z"/>
	</g>
</g>
</svg>
